<?xml version="1.0" standalone="no"?>
<!DOCTYPE svg PUBLIC "-//W3C//DTD SVG 1.1//EN" "http://www.w3.org/Graphics/SVG/1.1/DTD/svg11.dtd" >
<!--
2013-9-30: Created.
-->
<svg>
<metadata>
Created by iconfont
</metadata>
<defs>

<font id="iconfont" horiz-adv-x="1024" >
  <font-face
    font-family="iconfont"
    font-weight="500"
    font-stretch="normal"
    units-per-em="1024"
    ascent="896"
    descent="-128"
  />
    <missing-glyph />
    
    <glyph glyph-name="x" unicode="x" horiz-adv-x="1001"
d="M281 543q-27 -1 -53 -1h-83q-18 0 -36.5 -6t-32.5 -18.5t-23 -32t-9 -45.5v-76h912v41q0 16 -0.5 30t-0.5 18q0 13 -5 29t-17 29.5t-31.5 22.5t-49.5 9h-133v-97h-438v97zM955 310v-52q0 -23 0.5 -52t0.5 -58t-10.5 -47.5t-26 -30t-33 -16t-31.5 -4.5q-14 -1 -29.5 -0.5
t-29.5 0.5h-32l-45 128h-439l-44 -128h-29h-34q-20 0 -45 1q-25 0 -41 9.5t-25.5 23t-13.5 29.5t-4 30v167h911zM163 247q-12 0 -21 -8.5t-9 -21.5t9 -21.5t21 -8.5q13 0 22 8.5t9 21.5t-9 21.5t-22 8.5zM316 123q-8 -26 -14 -48q-5 -19 -10.5 -37t-7.5 -25t-3 -15t1 -14.5
t9.5 -10.5t21.5 -4h37h67h81h80h64h36q23 0 34 12t2 38q-5 13 -9.5 30.5t-9.5 34.5q-5 19 -11 39h-368zM336 498v228q0 11 2.5 23t10 21.5t20.5 15.5t34 6h188q31 0 51.5 -14.5t20.5 -52.5v-227h-327z" />
    

    
    <glyph glyph-name="pr-logo" unicode="&#58881;" d="M512 754.036364c-125.672727-34.909091-221.090909-195.490909-221.090909-390.981819 0-25.6 2.327273-48.872727 4.654545-72.145454 20.945455-6.981818 44.218182-11.636364 67.490909-16.290909-4.654545 30.254545-6.981818 62.836364-6.981818 97.745454 0 160.581818 60.509091 297.890909 144.290909 349.090909-67.490909-72.145455-109.381818-188.509091-109.381818-318.836363 0-46.545455 4.654545-93.090909 16.290909-134.981818 32.581818-2.327273 65.163636-4.654545 97.745455-2.327273 176.872727 6.981818 325.818182 81.454545 377.018182 181.527273C851.781818 621.3818180000001 698.181818 754.036364 512 754.036364zM384 193.163636c-6.981818 18.618182-11.636364 37.236364-16.290909 55.854546-25.6 4.654545-48.872727 11.636364-69.818182 20.945454 2.327273-18.618182 6.981818-37.236364 11.636364-55.854545 25.6-9.309091 48.872727-16.290909 74.472727-20.945455zM400.290909 151.27272700000003c-25.6 2.327273-48.872727 6.981818-72.145454 13.963637 18.618182-46.545455 44.218182-88.436364 72.145454-118.690909-39.563636 25.6-76.8 69.818182-100.072727 125.672727-55.854545 16.290909-102.4 41.890909-137.309091 69.818182 55.854545-137.309091 190.836364-235.054545 349.090909-235.054546h25.6c-55.854545 16.290909-104.727273 69.818182-137.309091 144.290909zM537.6 235.05454499999996c-41.890909-2.327273-83.781818 0-123.345455 4.654546 6.981818-18.618182 13.963636-39.563636 20.945455-58.181818 27.927273-4.654545 55.854545-4.654545 86.109091-4.654546 137.309091 0 256 39.563636 332.8 100.072728-53.527273-76.8-195.490909-132.654545-363.054546-132.654546h-34.90909c37.236364-62.836364 88.436364-109.381818 146.618181-130.327273 165.236364 39.563636 286.254545 186.181818 286.254546 360.727273-51.2-74.472727-188.509091-132.654545-351.418182-139.636364zM279.272727 225.745455c-4.654545 18.618182-9.309091 37.236364-13.963636 58.181818-39.563636 18.618182-72.145455 41.890909-93.090909 69.818182 25.6-18.618182 55.854545-34.909091 88.436363-48.872728-4.654545 27.927273-6.981818 60.509091-6.981818 90.763637 0 148.945455 51.2 276.945455 128 337.454545-141.963636-53.527273-246.690909-190.836364-246.690909-353.745454 0-13.963636 0-30.254545 2.327273-44.218182 30.254545-44.218182 79.127273-81.454545 141.963636-109.381818zM188.509091 702.836364l-11.636364 9.309091 4.654546 4.654545V709.818182H195.490909l-6.981818-6.981818z m-18.618182-34.909091l6.981818 6.981818 27.927273 27.927273 6.981818 6.981818-6.981818 9.309091-6.981818-6.981818v6.981818H190.836364 186.181818l4.654546 4.654545-6.981819 9.309091-4.654545-4.654545-9.309091-9.309091-6.981818 6.981818 9.309091 9.309091 6.981818 6.981818-9.309091 6.981818-6.981818-6.981818-25.6-27.927273-6.981818-6.981818 9.309091-6.981818 6.981818 6.981818 9.309091 9.309091 4.654545-6.981818-6.981818-6.981818-6.981818-6.981819 9.309091-6.981818 6.981818 6.981818 6.981818 6.981819 9.309091-9.309091-9.309091-11.636364-6.981818-4.654545 6.981818-9.309091zM116.363636 700.509091l51.2-46.545455 9.309091-9.309091 9.309091 9.309091 44.218182 44.218182 2.327273-2.327273 4.654545 13.963637-9.309091 6.981818-51.2 46.545455-9.309091 9.30909-6.981818-6.981818-46.545454-48.872727-6.981819-6.981818 9.309091-9.309091z m6.981819 9.309091l44.218181 44.218182 48.872728-46.545455L174.545455 663.272727 123.345455 709.818182zM286.254545 768c4.654545 6.981818 9.309091 13.963636 11.636364 18.618182 0 0 0 2.327273-2.327273 2.327273-4.654545-4.654545-6.981818-9.309091-9.309091-13.963637-2.327273-4.654545-6.981818-9.309091-13.963636-16.290909-2.327273 0-2.327273 2.327273-4.654545 2.327273s-2.327273 2.327273-6.981819 4.654545c2.327273 2.327273 6.981818 4.654545 9.309091 6.981818 2.327273 2.327273 4.654545 4.654545 6.981819 9.309091 2.327273 4.654545 4.654545 6.981818 6.981818 11.636364h-2.327273l-9.309091-9.309091-9.309091-9.309091c-2.327273 0-2.327273 2.327273-4.654545 2.327273 0 0-4.654545 2.327273-6.981818 4.654545 2.327273 2.327273 6.981818 4.654545 11.636363 6.981819 4.654545 2.327273 9.309091 9.309091 16.290909 16.290909l-13.963636-6.981819-6.981818-4.654545-2.327273 11.636364 6.981818 4.654545 39.563637 18.618182 9.30909 4.654545 4.654546-9.309091-9.309091-4.654545-13.963636-6.981818h4.654545c-2.327273-4.654545-4.654545-6.981818-6.981818-9.309091 4.654545 0 6.981818 0 6.981818-2.327273l4.654546-2.327273c4.654545 9.309091 6.981818 13.963636 6.981818 16.29091l2.327272 6.981818c2.327273 0 2.327273 0 4.654546-2.327273 2.327273 0 4.654545 0 9.309091-2.327273l-6.981818-13.963636c2.327273 0 4.654545-2.327273 6.981818-4.654546 2.327273-2.327273 6.981818-4.654545 13.963636-4.654545 4.654545-2.327273 11.636364-2.327273 16.290909-2.327273 0-2.327273-2.327273-4.654545-2.327272-6.981818v-6.981818c-6.981818 0-13.963636 2.327273-18.618182 2.327273-4.654545 2.327273-9.309091 2.327273-11.636364 4.654545-2.327273 2.327273-6.981818 4.654545-11.636364 9.309091l-2.327272-4.654545c0-2.327273 2.327273-2.327273 2.327272-4.654546 2.327273 0 2.327273-4.654545 4.654546-6.981818 2.327273-2.327273 2.327273-6.981818 4.654545-9.309091v-9.309091c0-2.327273-4.654545-6.981818-11.636363-9.309091-4.654545 6.981818-6.981818 9.309091-6.981818 9.309091l-4.654546 2.327273c4.654545 2.327273 9.309091 2.327273 9.309091 4.654545v4.654546c0 2.327273-2.327273 4.654545-2.327273 4.654545-2.327273-4.654545-4.654545-9.309091-9.309091-13.963636-4.654545-4.654545-6.981818-9.309091-9.309091-11.636364l-9.30909-11.636363c-2.327273 2.327273-4.654545 2.327273-6.981819 4.654545l-4.654545 2.327273c9.309091 9.309091 16.290909 16.290909 20.945454 23.272727z m-41.890909 23.272727l-2.327272 4.654546-4.654546 9.309091-4.654545 9.309091 11.636363 4.654545 25.6 13.963636c-2.327273 0-4.654545 2.327273-6.981818 2.327273l2.327273 2.327273s2.327273 2.327273 4.654545 6.981818c4.654545 0 9.309091-2.327273 13.963637-2.327273 0 0 0-2.327273-2.327273-2.327272l27.927273 13.963636 9.309091 4.654545V849.454545l6.981818-9.30909 2.327273-4.654546-11.636364-6.981818-2.327273 4.654545-4.654545 6.981819-60.509091-30.254546 4.654545-6.981818 2.327273-4.654546-11.636364-6.981818zM404.945455 865.745455l18.618181 2.327272 2.327273-11.636363-20.945454-2.327273v11.636364z m-13.963637 0l6.981818-39.563637 2.327273-11.636363 13.963636 2.327272v2.327273l20.945455 2.327273 2.327273-16.290909c0-2.327273 0-4.654545 2.327272-4.654546 0-2.327273 2.327273-2.327273 4.654546-2.327273h9.309091c4.654545 0 9.309091 0 16.290909 2.327273 0 2.327273 6.981818 2.327273 9.309091 2.327273 2.327273 0 4.654545 2.327273 6.981818 2.327273 2.327273 0 2.327273 2.327273 4.654545 4.654545 0 2.327273 2.327273 6.981818 2.327273 13.963636-4.654545 0-9.309091 2.327273-13.963636 4.654546v-4.654546c0-2.327273 0-4.654545-2.327273-6.981818-2.327273-2.327273-2.327273-2.327273-4.654545-2.327272s-4.654545 0-11.636364-2.327273l-11.636364-2.327273h-4.654545l-2.327273 2.327273 2.327273 13.963636 23.272727 2.327273V826.181818l13.963637 2.327273-2.327273 9.309091-6.981818 39.563636V886.690909l-9.309091-2.327273-27.927273-4.654545V884.363636l-2.327273 11.636364-13.963636-2.327273 2.327273-9.309091v-4.654545l-23.272728-4.654546h-9.309091l2.327273-9.30909z m16.290909-23.272728l18.618182 2.327273 2.327273-11.636364-20.945455-2.327272v11.636363z m30.254546 27.927273l23.272727 2.327273 2.327273-11.636364-23.272728-2.327273-2.327272 11.636364z m2.327272-23.272727l23.272728 4.654545 2.327272-11.636363-23.272727-2.327273-2.327273 9.309091zM565.527273 865.745455l2.327272-4.654546s2.327273-4.654545 4.654546-11.636364c-2.327273-4.654545-4.654545-6.981818-6.981818-9.30909l-6.981818-6.981819 6.981818 32.581819z m-11.636364-60.509091l2.327273 13.963636 2.327273 13.963636c2.327273-4.654545 4.654545-6.981818 4.654545-6.981818s2.327273-2.327273 2.327273-4.654545l9.309091 9.309091c0 2.327273 2.327273 2.327273 2.327272 4.654545V828.509091h4.654546c2.327273 0 4.654545 2.327273 9.309091 4.654545-2.327273 4.654545-4.654545 9.309091-4.654546 13.963637l2.327273 2.327272c0 2.327273 2.327273 4.654545 2.327273 6.981819 2.327273-4.654545 4.654545-6.981818 4.654545-9.309091 0-2.327273 2.327273-4.654545 2.327273-9.309091l-2.327273-4.654546c-2.327273-2.327273-4.654545-4.654545-6.981818-9.309091-2.327273-2.327273-6.981818-4.654545-9.309091-6.981818 2.327273-2.327273 4.654545-4.654545 6.981818-4.654545 0 0 2.327273-2.327273 2.327273-4.654546 2.327273 2.327273 4.654545 2.327273 4.654545 4.654546 2.327273 2.327273 4.654545 4.654545 9.309091 11.636363l2.327273-2.327272v-4.654546c4.654545 2.327273 6.981818 4.654545 11.636364 6.981818l-2.327273 4.654546s-2.327273 4.654545-4.654545 13.963636l2.327272 6.981818c0 2.327273 2.327273 4.654545 2.327273 9.309091l2.327273 6.981819v2.327272c-4.654545 0-6.981818 2.327273-11.636364 4.654546v-2.327273c0-2.327273-2.327273-4.654545-2.327273-9.309091-2.327273 2.327273-2.327273 4.654545-4.654545 6.981818l-2.327273-2.327272c-2.327273 0-4.654545-2.327273-6.981818-2.327273l2.327273 4.654545v2.327273c0 2.327273 0 2.327273 2.327272 4.654545-4.654545 0-9.309091 2.327273-11.636363 4.654546V872.727273c0-2.327273 0-2.327273-2.327273-4.654546 0-2.327273 0-2.327273-2.327273-4.654545-2.327273 2.327273-2.327273 6.981818-4.654545 9.309091-2.327273-2.327273-4.654545-2.327273-6.981818-2.327273h-2.327273l2.327273 13.963636 58.181818-9.309091-11.636364-60.50909s0-2.327273-2.327272-2.327273H605.090909c-2.327273 0-4.654545 0-6.981818 2.327273V800.581818h13.963636c2.327273 0 4.654545 2.327273 6.981818 2.327273 0 2.327273 2.327273 4.654545 2.327273 4.654545l11.636364 65.163637 2.327273 11.636363-6.981819-2.327272-60.509091 9.309091-11.636363 4.654545-2.327273-11.636364-11.636364-60.509091-2.327272-13.963636 13.963636-4.654545zM698.181818 809.890909c0 4.654545-2.327273 9.309091-2.327273 11.636364l-2.327272 2.327272c4.654545 0 9.309091 0 16.290909 2.327273 6.981818 2.327273 11.636364 4.654545 16.290909 6.981818 4.654545 2.327273 9.309091 4.654545 13.963636 9.309091l2.327273 2.327273c2.327273-4.654545 4.654545-6.981818 9.309091-11.636364-6.981818-4.654545-11.636364-6.981818-16.290909-9.309091-4.654545-2.327273-11.636364-4.654545-18.618182-6.981818-6.981818-4.654545-11.636364-4.654545-18.618182-6.981818z m-2.327273-20.945454c2.327273 0 4.654545 0 9.309091 2.327272s6.981818 2.327273 11.636364 4.654546 6.981818 4.654545 11.636364 6.981818c4.654545 2.327273 6.981818 4.654545 6.981818 4.654545l2.327273 2.327273c2.327273-4.654545 4.654545-9.309091 9.30909-13.963636-2.327273 0-4.654545-2.327273-4.654545-2.327273l-9.309091-4.654545c-4.654545-2.327273-6.981818-2.327273-11.636364-4.654546s-9.309091-2.327273-13.963636-4.654545c11.636364-6.981818 23.272727-11.636364 34.909091-16.290909 0 4.654545 0 9.309091-2.327273 11.636363l-2.327272 4.654546h13.963636c2.327273-16.290909 4.654545-27.927273 4.654545-37.236364-6.981818 0-11.636364-2.327273-11.636363-2.327273h-4.654546v4.654546 6.981818c-6.981818 2.327273-13.963636 6.981818-25.6 11.636364-11.636364 4.654545-18.618182 6.981818-20.945454 9.30909-2.327273 0-4.654545 2.327273-9.309091 2.327273 2.327273 4.654545 2.327273 9.309091 2.327273 11.636364v2.327273h9.30909z m67.49091 44.218181c4.654545-2.327273 6.981818-4.654545 11.636363-6.981818 0-2.327273-2.327273-2.327273-2.327273-4.654545 0 0-2.327273-2.327273-2.327272-4.654546s-2.327273-4.654545-2.327273-9.309091 0-9.309091 2.327273-11.636363c0-4.654545 2.327273-6.981818 2.327272-9.309091 0-2.327273 2.327273-4.654545 2.327273-4.654546 0-2.327273 2.327273-4.654545 6.981818-6.981818 0 0-2.327273 0-4.654545-2.327273 0 0-4.654545-2.327273-9.309091-6.981818 0 9.309091-4.654545 13.963636-6.981818 18.618182-2.327273 4.654545-4.654545 9.309091-4.654546 13.963636v11.636364c0 4.654545 2.327273 6.981818 2.327273 9.309091 2.327273 4.654545 2.327273 9.309091 4.654546 13.963636zM826.181818 705.163636l9.309091 9.309091 18.618182-20.945454-9.309091-6.981818-18.618182 18.618181z m55.854546 4.654546l-30.254546 32.581818-6.981818 9.309091-9.309091-9.309091 9.309091-9.309091 30.254545-32.581818 9.309091-9.309091 9.309091 6.981818-11.636363 11.636364z m-18.618182 34.909091l41.890909-41.890909-46.545455-44.218182c-2.327273-2.327273-2.327273-2.327273-4.654545-2.327273 0 0-2.327273 0-2.327273 2.327273l-2.327273 2.327273c-2.327273 2.327273-2.327273 2.327273-2.327272 4.654545l-4.654546-2.327273c0-2.327273-2.327273-4.654545-2.327272-4.654545 0-2.327273-2.327273-2.327273-2.327273-4.654546 6.981818-4.654545 11.636364-9.309091 13.963636-9.309091 2.327273-2.327273 4.654545-2.327273 4.654546 0l4.654545 4.654546 51.2 48.872727 9.309091 6.981818-9.309091 4.654546-41.890909 44.218182-9.309091 9.309091-6.981818-6.981819 9.309091-11.636363z m-32.581818-18.618182l-13.963637-11.636364-6.981818-6.981818 6.981818-6.981818 20.945455-23.272727 6.981818-9.309091 6.981818 6.981818 13.963637 11.636364 6.981818 6.981818-9.309091 6.981818-20.945455 23.272727-6.981818 9.309091-4.654545-6.981818zM107.054545 553.890909l2.327273-2.327273-2.327273-4.654545-23.272727 4.654545v6.981819c4.654545 0 9.309091 0 13.963637 2.327272 4.654545 2.327273 6.981818 4.654545 9.30909 9.309091 2.327273 2.327273 2.327273 4.654545 0 6.981818 0 2.327273-2.327273 4.654545-4.654545 4.654546-2.327273 2.327273-9.309091-2.327273-16.290909-11.636364-2.327273 0-2.327273-2.327273-2.327273-2.327273-4.654545-6.981818-9.309091-9.309091-13.963636-11.636363-4.654545-2.327273-9.309091 0-13.963637 2.327273-6.981818 2.327273-11.636364 9.309091-13.963636 13.963636-2.327273 6.981818-2.327273 11.636364 2.327273 18.618182 2.327273 2.327273 2.327273 4.654545 4.654545 9.309091l6.981818 6.981818-4.654545 2.327273 2.327273 4.654545 27.927272-4.654545v-6.981819c-6.981818 0-13.963636 0-18.618181-2.327272-4.654545-2.327273-9.309091-4.654545-11.636364-9.309091-2.327273-2.327273-2.327273-6.981818-2.327273-9.309091 0-2.327273 2.327273-4.654545 4.654546-6.981818 2.327273-2.327273 9.309091 2.327273 16.290909 9.309091l2.327273 2.327272 9.30909 9.309091c2.327273 2.327273 4.654545 2.327273 4.654546 4.654546 2.327273 0 4.654545 2.327273 9.309091 2.327272 2.327273 0 6.981818 0 9.309091-2.327272 6.981818-2.327273 9.309091-6.981818 11.636363-13.963637 2.327273-6.981818 2.327273-11.636364-2.327272-18.618182 2.327273-4.654545 2.327273-6.981818 0-9.30909-2.327273-2.327273-4.654545-2.327273-6.981819-4.654546zM102.4 532.945455l-16.290909-51.2h-23.272727v6.981818c6.981818 0 11.636364 2.327273 13.963636 4.654545 2.327273 2.327273 4.654545 4.654545 6.981818 9.309091l-39.563636 11.636364c-4.654545 2.327273-9.309091 2.327273-11.636364 2.327272-2.327273 0-2.327273-2.327273-4.654545-4.654545l-9.309091 2.327273 9.309091 30.254545 9.309091-2.327273v-6.981818c0-2.327273 4.654545-2.327273 9.309091-4.654545l39.563636-11.636364c2.327273 4.654545 2.327273 6.981818 0 11.636364-2.327273 2.327273-4.654545 6.981818-9.309091 11.636363l6.981818 4.654546 18.618182-13.963636zM44.218182 453.818182l2.327273 11.636363 18.618181-11.636363h-20.945454z m-9.309091 30.254545c-6.981818 4.654545-9.309091 9.309091-9.309091 13.963637L16.290909 500.363636l-4.654545-27.927272 9.309091-2.327273c0 2.327273 2.327273 4.654545 2.327272 4.654545H30.254545l9.309091-4.654545-4.654545-20.945455H23.272727 20.945455 18.618182c-2.327273 0-2.327273 0-2.327273 2.327273v4.654546l-9.309091 2.327272-4.654545-32.581818 9.309091-2.327273c0 6.981818 4.654545 9.309091 11.636363 9.309091l58.181818 6.981818 2.327273 13.963637-48.872727 30.254545zM76.8 421.236364l-2.327273-53.527273-23.272727-6.981818-2.327273 6.981818c6.981818 2.327273 9.309091 4.654545 11.636364 6.981818 2.327273 2.327273 4.654545 6.981818 4.654545 11.636364H11.636364c-2.327273 0-2.327273-2.327273-2.327273-6.981818H0l2.327273 32.581818h9.309091c0-2.327273 0-4.654545 2.327272-6.981818 2.327273 0 4.654545-2.327273 11.636364-2.327273l41.890909-2.327273c0 4.654545 0 6.981818-2.327273 11.636364-2.327273 2.327273-6.981818 6.981818-11.636363 9.309091l2.327272 6.981818 20.945455-6.981818zM74.472727 358.4l6.981818-53.527273-20.945454-11.636363-4.654546 4.654545c4.654545 4.654545 9.309091 9.309091 11.636364 13.963636 2.327273 4.654545 4.654545 9.309091 2.327273 13.963637 0 2.327273-2.327273 4.654545-2.327273 4.654545h-16.290909v-2.327272c0-2.327273 2.327273-4.654545 2.327273-6.981819 2.327273 0 4.654545-2.327273 9.309091 0v-6.981818l-32.581819-4.654545v6.981818c4.654545 0 6.981818 2.327273 9.309091 4.654545 2.327273 2.327273 2.327273 4.654545 2.327273 6.981819v2.327272l-18.618182-2.327272c-4.654545 0-6.981818-2.327273-6.981818-2.327273-2.327273 0-2.327273-2.327273-2.327273-6.981818 0-4.654545 2.327273-9.309091 6.981819-13.963637 4.654545-4.654545 9.309091-6.981818 16.290909-9.309091l-2.327273-6.981818-25.6 6.981818-6.981818 55.854546h9.309091c0-2.327273 2.327273-4.654545 2.327272-6.981818h11.636364l27.927273 2.327272c6.981818 0 9.309091 2.327273 11.636363 2.327273 2.327273 2.327273 2.327273 4.654545 2.327273 6.981818l6.981818 2.327273zM102.4 225.745455h2.327273l2.327272-6.981819-20.945454-13.963636-4.654546 6.981818c4.654545 4.654545 9.309091 9.309091 9.309091 13.963637 2.327273 4.654545 2.327273 6.981818 0 11.636363-2.327273 2.327273-4.654545 6.981818-11.636363 6.981818-4.654545 0-11.636364 0-20.945455-4.654545-9.309091-2.327273-13.963636-6.981818-18.618182-11.636364-2.327273-4.654545-4.654545-9.309091-2.327272-13.963636 2.327273-4.654545 4.654545-6.981818 6.981818-6.981818 2.327273-2.327273 6.981818-2.327273 9.309091 0 2.327273 0 4.654545 2.327273 4.654545 4.654545v6.981818l9.309091 2.327273 11.636364-27.927273-9.309091-2.327272c-2.327273 2.327273-2.327273 4.654545-4.654546 4.654545s-4.654545 0-9.309091-2.327273l-18.618181-6.981818-4.654546 9.309091 4.654546 4.654546-6.981819 6.981818c-2.327273 2.327273-4.654545 4.654545-4.654545 9.309091-2.327273 9.309091-2.327273 16.290909 2.327273 23.272727 4.654545 6.981818 11.636364 13.963636 23.272727 18.618182 9.309091 4.654545 20.945455 4.654545 27.927273 0 9.309091-4.654545 16.290909-9.309091 18.618182-18.618182 0-2.327273 2.327273-4.654545 2.327272-6.981818 2.327273-2.327273 2.327273-4.654545 2.327273-6.981818zM109.381818 174.54545499999995c2.327273 2.327273 6.981818 2.327273 6.981818 2.327272 2.327273 0 2.327273-2.327273 4.654546-4.654545 2.327273-4.654545 2.327273-6.981818 2.327273-11.636364 0-2.327273-2.327273-4.654545-4.654546-6.981818-2.327273-2.327273-6.981818-2.327273-9.309091 0-2.327273 2.327273-6.981818 4.654545-9.309091 11.636364v2.327272l9.309091 6.981819z m-4.654545 27.927272c2.327273-2.327273 2.327273-4.654545 0-6.981818 0-2.327273-4.654545-4.654545-9.309091-6.981818l-23.272727-13.963636-9.309091-4.654546c-2.327273 0-4.654545 2.327273-4.654546 4.654546l-11.636363-4.654546 16.290909-27.927273 6.981818 4.654546v6.981818c0 2.327273 4.654545 4.654545 9.309091 6.981818l9.309091 4.654546 2.327272-4.654546-18.618181-32.581818 9.30909-18.618182 6.981819 4.654546c0 2.327273-2.327273 4.654545-2.327273 6.981818 0 2.327273 0 4.654545 2.327273 6.981818l9.309091 20.945455c4.654545-4.654545 6.981818-6.981818 11.636363-6.981819s9.309091 0 11.636364 2.327273c6.981818 2.327273 9.309091 6.981818 9.309091 13.963636 0 4.654545 0 11.636364-4.654546 20.945455l-18.618182 32.581818-2.327272-9.309091zM146.618182 144.29090900000006l18.618182-27.927273-6.981819-4.654545c-2.327273 2.327273-4.654545 2.327273-6.981818 2.327273-2.327273 0-4.654545-2.327273-9.309091-4.654546l-23.272727-16.290909c-4.654545-2.327273-6.981818-6.981818-6.981818-6.981818 0-2.327273 0-4.654545 2.327273-6.981818l-6.981819-4.654546-18.618181 27.927273 6.981818 4.654545c2.327273-2.327273 4.654545-4.654545 6.981818-4.654545 2.327273 0 4.654545 2.327273 9.309091 4.654545l23.272727 16.29091 6.981818 6.981818c0 2.327273 0 4.654545-2.327272 6.981818l6.981818 6.981818zM172.218182 81.45454500000005c4.654545 2.327273 4.654545 4.654545 6.981818 4.654546 2.327273 0 2.327273 0 4.654545-2.327273 4.654545-4.654545 4.654545-11.636364 4.654546-16.290909-2.327273-6.981818-4.654545-11.636364-11.636364-16.290909-6.981818-6.981818-13.963636-9.309091-18.618182-9.309091-6.981818 0-11.636364 2.327273-16.290909 6.981818-2.327273 0-2.327273 2.327273-2.327272 4.654546s2.327273 2.327273 4.654545 4.654545l27.927273 23.272727z m-6.981818 25.6c2.327273-2.327273 2.327273-4.654545 2.327272-6.981818 0-2.327273-2.327273-4.654545-6.981818-9.309091l-20.945454-16.290909c-4.654545-4.654545-6.981818-4.654545-9.309091-6.981818-2.327273 0-2.327273 0-4.654546 2.327273l-6.981818-6.981818 20.945455-25.6c6.981818-9.309091 16.290909-13.963636 25.6-16.290909 9.309091 0 18.618182 2.327273 27.927272 9.30909 9.309091 6.981818 13.963636 16.290909 16.290909 25.6 0 9.309091-2.327273 18.618182-11.636363 27.927273l-20.945455 25.6-11.636363-2.327273zM274.618182 9.309090999999967l4.654545 2.327273 4.654546-2.327273-9.309091-25.6-6.981818 2.327273c2.327273 6.981818 2.327273 11.636364 2.327272 16.290909 0 4.654545-2.327273 9.309091-6.981818 11.636363-4.654545 2.327273-9.309091 4.654545-16.290909 2.327273-4.654545-2.327273-11.636364-6.981818-16.290909-13.963636-4.654545-6.981818-9.309091-13.963636-9.309091-18.618182 0-6.981818 2.327273-11.636364 6.981818-13.963636 2.327273-2.327273 6.981818-4.654545 11.636364-4.654546s9.309091 0 16.290909 2.327273l4.654545-6.981818c-6.981818-4.654545-13.963636-6.981818-20.945454-4.654546-6.981818 0-13.963636 2.327273-18.618182 6.981818-9.309091 6.981818-13.963636 13.963636-13.963636 23.272728s2.327273 18.618182 9.309091 27.927272c6.981818 9.309091 13.963636 13.963636 25.6 16.290909 9.309091 2.327273 18.618182 0 25.6-6.981818 2.327273-2.327273 4.654545-2.327273 4.654545-4.654545s2.327273-4.654545 2.327273-9.309091zM328.145455-30.254545000000007c0-4.654545-2.327273-11.636364-4.654546-20.945455-4.654545-9.309091-9.309091-13.963636-13.963636-16.290909-4.654545-2.327273-9.309091-4.654545-13.963637-2.327273-4.654545 2.327273-6.981818 6.981818-9.309091 11.636364 0 6.981818 0 11.636364 4.654546 20.945454 4.654545 6.981818 9.309091 13.963636 13.963636 16.290909 4.654545 2.327273 9.309091 4.654545 13.963637 2.327273 4.654545 0 6.981818-4.654545 9.309091-11.636363z m-32.581819 23.272727c-9.309091-2.327273-16.290909-9.309091-20.945454-20.945455-4.654545-11.636364-6.981818-20.945455-2.327273-27.927272 2.327273-9.309091 9.309091-16.290909 18.618182-20.945455 9.309091-4.654545 18.618182-4.654545 27.927273 0 9.309091 2.327273 16.290909 9.309091 20.945454 20.945455 4.654545 9.309091 6.981818 20.945455 2.327273 30.254545-2.327273 9.309091-9.309091 16.290909-18.618182 20.945455-9.309091 0-18.618182 0-27.927273-2.327273zM377.018182-51.200000000000045c0 4.654545 2.327273 6.981818 4.654545 6.981818h6.981818c4.654545-2.327273 6.981818-2.327273 9.309091-6.981818 2.327273-2.327273 2.327273-4.654545 2.327273-9.309091-2.327273-4.654545-2.327273-6.981818-6.981818-6.981818-2.327273-2.327273-9.309091 0-13.963636 0h-2.327273-2.327273l2.327273 16.290909z m-23.272727 16.290909c2.327273-2.327273 4.654545-2.327273 4.654545-4.654545s0-4.654545-2.327273-11.636364l-6.981818-25.6c-2.327273-4.654545-2.327273-9.309091-4.654545-9.309091s-4.654545-2.327273-6.981819 0l-2.327272-9.309091 32.581818-9.309091 2.327273 9.309091c-2.327273 0-4.654545 2.327273-4.654546 4.654546s0 4.654545 2.327273 11.636363l2.327273 9.309091 6.981818-2.327273 11.636363-34.90909 20.945455-6.981819 2.327273 9.309091c-2.327273 0-4.654545 2.327273-4.654546 2.327273-2.327273 2.327273-2.327273 4.654545-2.327272 6.981818l-6.981819 20.945455c4.654545 0 9.309091 2.327273 13.963637 2.327272 2.327273 2.327273 4.654545 6.981818 6.981818 11.636364 2.327273 6.981818 0 11.636364-2.327273 16.290909-2.327273 4.654545-9.309091 6.981818-18.618182 11.636364l-37.236363 11.636363-6.981818-13.963636zM449.163636-67.49090899999999c0 4.654545 2.327273 6.981818 2.327273 6.981818s2.327273 2.327273 4.654546 0c4.654545 0 6.981818-2.327273 9.30909-4.654545 2.327273-2.327273 2.327273-4.654545 2.327273-9.309091s-2.327273-6.981818-4.654545-9.309091c-2.327273-2.327273-6.981818-2.327273-11.636364-2.327273h-2.327273-2.327272l2.327272 18.618182z m-23.272727 11.636364c2.327273 0 4.654545-2.327273 4.654546-2.327273v-11.636364l-4.654546-27.927273c0-6.981818-2.327273-9.309091-2.327273-11.636363-2.327273-2.327273-2.327273-2.327273-6.981818-2.327273v-9.309091l32.581818-4.654545v9.309091c-2.327273 0-4.654545 2.327273-4.654545 2.327272v18.618182l11.636364-2.327273c9.309091-2.327273 13.963636 0 18.618181 2.327273 4.654545 2.327273 6.981818 6.981818 6.981819 13.963637s0 11.636364-4.654546 16.290909c-4.654545 4.654545-9.309091 6.981818-18.618182 6.981818l-34.909091 4.654545 2.327273-2.327272zM537.6-67.49090899999999c2.327273-4.654545 4.654545-11.636364 4.654545-20.945455s0-16.290909-4.654545-20.945454c-2.327273-4.654545-6.981818-6.981818-11.636364-6.981818s-9.309091 2.327273-13.963636 6.981818c-2.327273 4.654545-4.654545 11.636364-4.654545 20.945454s0 16.290909 4.654545 20.945455c2.327273 4.654545 6.981818 6.981818 11.636364 6.981818s9.309091-2.327273 13.963636-6.981818z m-39.563636 4.654545c-6.981818-6.981818-9.309091-16.290909-9.309091-27.927272s4.654545-20.945455 11.636363-27.927273c6.981818-6.981818 16.290909-9.309091 25.6-9.309091 11.636364 0 18.618182 4.654545 25.6 11.636364 6.981818 6.981818 9.309091 16.290909 9.309091 27.927272s-4.654545 20.945455-11.636363 27.927273c-6.981818 6.981818-16.290909 9.309091-25.6 9.309091-11.636364-2.327273-18.618182-4.654545-25.6-11.636364zM586.472727-65.163636V-58.18181800000002c0 2.327273 2.327273 2.327273 6.981818 2.327273h11.636364c2.327273-2.327273 4.654545-4.654545 4.654546-6.981819 0-4.654545 0-6.981818-2.327273-9.309091-2.327273-2.327273-6.981818-4.654545-13.963637-4.654545h-2.327272-2.327273l-2.327273 11.636364z m-25.6 4.654545h6.981818s2.327273-4.654545 2.327273-11.636364l4.654546-27.927272v-11.636364c0-2.327273-2.327273-2.327273-6.981819-2.327273l2.327273-9.309091 32.581818 4.654546-2.327272 9.309091c-2.327273 0-4.654545 0-6.981819 2.327273-2.327273 2.327273-2.327273 4.654545-2.327272 11.636363l-2.327273 9.309091h6.981818l25.6-27.927273 20.945455 2.327273-2.327273 9.309091h-6.981818c-2.327273 0-4.654545 2.327273-4.654546 4.654545l-13.963636 16.29091c4.654545 2.327273 9.309091 4.654545 9.309091 9.30909 2.327273 2.327273 2.327273 6.981818 2.327273 11.636364-2.327273 6.981818-4.654545 11.636364-9.309091 13.963636-4.654545 2.327273-11.636364 2.327273-20.945455 2.327273l-37.236363-6.981818 2.327272-9.309091zM674.909091-62.836364l-11.636364-4.654545v23.272727l11.636364-18.618182z m-20.945455-20.945454c0-2.327273 0-2.327273 0 0 0-9.309091-2.327273-13.963636-6.981818-16.290909l2.327273-9.309091 25.6 9.309091-2.327273 6.981818c-2.327273 0-4.654545-2.327273-4.654545 0-2.327273 0-2.327273 2.327273-2.327273 4.654545v13.963637l18.618182 6.981818 6.981818-9.309091v-9.309091s-2.327273-2.327273-4.654545-2.327273l2.327272-6.981818 30.254546 11.636364-2.327273 9.309091c-4.654545 0-6.981818 0-11.636364 4.654545l-37.236363 44.218182-16.290909-4.654545 2.327272-53.527273zM688.872727-18.618182000000047l48.872728 25.6 16.290909-16.290909-4.654546-4.654545c-4.654545 4.654545-9.309091 4.654545-13.963636 6.981818-4.654545 0-6.981818 0-11.636364-2.327273l18.618182-34.909091c2.327273-4.654545 4.654545-9.309091 6.981818-9.309091h6.981818l4.654546-6.981818-30.254546-16.290909-4.654545 9.309091c2.327273 0 4.654545 2.327273 4.654545 4.654545s-2.327273 4.654545-4.654545 9.309091l-18.618182 34.909091c-4.654545-2.327273-6.981818-4.654545-6.981818-9.309091 0-2.327273-2.327273-6.981818-2.327273-13.963636h-6.981818l-2.327273 23.272727zM744.727273 11.636363999999958l27.927272 18.618181 4.654546-6.981818-4.654546-4.654545c0-2.327273 2.327273-4.654545 4.654546-9.309091l16.290909-23.272727c2.327273-4.654545 4.654545-6.981818 6.981818-9.309091 2.327273 0 4.654545 0 6.981818 2.327272l4.654546-6.981818-27.927273-18.618182-4.654545 6.981819 4.654545 4.654545c0 2.327273-2.327273 4.654545-4.654545 9.309091l-16.290909 23.272727c-2.327273 4.654545-6.981818 6.981818-6.981819 6.981818-2.327273 0-4.654545 0-6.981818-2.327272L744.727273 11.636363999999958zM821.527273 48.872727000000054c4.654545-2.327273 11.636364-6.981818 16.290909-13.963636 4.654545-6.981818 9.309091-13.963636 9.309091-18.618182 0-6.981818 0-9.309091-4.654546-13.963636-4.654545-2.327273-9.309091-4.654545-16.290909-2.327273-4.654545 2.327273-11.636364 6.981818-16.290909 13.963636-4.654545 6.981818-9.309091 13.963636-9.309091 18.618182 0 6.981818 2.327273 11.636364 4.654546 13.963637 6.981818 4.654545 11.636364 4.654545 16.290909 2.327272z m-34.909091-18.618182c0-9.309091 2.327273-18.618182 9.309091-27.927272 6.981818-9.309091 16.290909-13.963636 25.6-16.290909 9.309091-2.327273 18.618182 0 27.927272 6.981818 9.309091 6.981818 13.963636 13.963636 13.963637 23.272727s-2.327273 18.618182-9.309091 27.927273c-6.981818 9.309091-16.290909 13.963636-25.6 16.290909-9.309091 2.327273-18.618182 0-27.927273-6.981818-6.981818-4.654545-11.636364-11.636364-13.963636-23.272728zM921.6 183.85454500000003c6.981818 0 13.963636 0 20.945455-4.654545 9.309091-4.654545 13.963636-9.309091 18.618181-13.963636 2.327273-4.654545 4.654545-9.309091 2.327273-13.963637-2.327273-4.654545-6.981818-6.981818-11.636364-9.309091-6.981818 0-13.963636 2.327273-20.945454 4.654546-9.309091 4.654545-13.963636 9.309091-18.618182 13.963636-4.654545 4.654545-4.654545 9.309091-2.327273 13.963637 2.327273 4.654545 6.981818 9.309091 11.636364 9.30909z m-20.945455-32.581818c4.654545-9.309091 11.636364-16.290909 20.945455-20.945454 11.636364-4.654545 20.945455-6.981818 30.254545-2.327273 9.309091 2.327273 16.290909 9.309091 20.945455 18.618182 4.654545 9.309091 4.654545 18.618182 2.327273 27.927273-2.327273 9.309091-9.309091 16.290909-20.945455 20.945454-9.309091 4.654545-20.945455 6.981818-30.254545 2.327273-9.309091-2.327273-16.290909-9.309091-20.945455-18.618182-6.981818-9.309091-6.981818-18.618182-2.327273-27.927273zM919.272727 211.78181800000004l18.618182 51.2 23.272727 2.327273v-6.981818c-6.981818-2.327273-11.636364-4.654545-13.963636-6.981818-4.654545-2.327273-6.981818-6.981818-9.309091-11.636364v-6.981818c0-2.327273 2.327273-2.327273 6.981818-4.654546l9.309091-2.327272v2.327272c2.327273 4.654545 2.327273 6.981818 0 9.309091 0 2.327273-4.654545 2.327273-6.981818 4.654546l2.327273 4.654545 32.581818-11.636364-2.327273-6.981818h-9.309091c-2.327273 0-4.654545-2.327273-4.654545-4.654545v-2.327273l11.636363-4.654545c4.654545-2.327273 9.309091-2.327273 11.636364-2.327273 2.327273 0 2.327273 2.327273 4.654546 4.654545l9.30909-2.327272-11.636363-32.581819-9.309091 2.327273v6.981818c0 2.327273-4.654545 2.327273-9.309091 4.654546l-27.927273 9.309091c-4.654545 2.327273-9.309091 2.327273-11.636363 2.327272-2.327273 0-2.327273-2.327273-4.654546-4.654545l-9.309091 6.981818zM954.181818 344.436364l-4.654545 2.327272v4.654546l27.927272 4.654545 2.327273-6.981818c-6.981818-2.327273-11.636364-4.654545-16.290909-6.981818-4.654545-4.654545-6.981818-6.981818-6.981818-11.636364s0-9.309091 6.981818-13.963636c4.654545-4.654545 11.636364-6.981818 20.945455-6.981818s16.290909 0 20.945454 2.327272c4.654545 2.327273 9.309091 6.981818 9.309091 11.636364s0 9.309091-2.327273 11.636364c-2.327273 4.654545-6.981818 9.309091-11.636363 11.636363l4.654545 6.981819c6.981818-4.654545 11.636364-9.309091 16.290909-16.29091 2.327273-6.981818 4.654545-11.636364 2.327273-18.618181-2.327273-11.636364-6.981818-18.618182-13.963636-23.272728-6.981818-4.654545-18.618182-6.981818-30.254546-4.654545-11.636364 2.327273-20.945455 4.654545-25.6 13.963636-6.981818 6.981818-9.309091 16.290909-6.981818 25.6 0 2.327273 2.327273 4.654545 2.327273 6.981818 2.327273 0 2.327273 4.654545 4.654545 6.981819zM949.527273 358.4l-2.327273 32.581818h9.309091c0-2.327273 0-4.654545 2.327273-4.654545s4.654545-2.327273 11.636363-2.327273h6.981818v25.6h-6.981818c-6.981818 0-9.309091 0-11.636363-2.327273-2.327273 0-2.327273-2.327273-2.327273-6.981818h-9.309091V430.545455h9.309091c0-2.327273 2.327273-4.654545 2.327273-6.981819 2.327273 0 4.654545-2.327273 11.636363 0h27.927273c4.654545 0 9.309091 0 11.636364 2.327273 2.327273 2.327273 2.327273 2.327273 2.327272 6.981818h9.309091l2.327273-32.581818h-9.309091c0 2.327273 0 4.654545-2.327273 6.981818-2.327273 0-4.654545 2.327273-11.636363 0h-11.636364v-25.6h11.636364c4.654545 0 9.309091 0 11.636363 2.327273 2.327273 0 2.327273 2.327273 2.327273 6.981818h9.309091V360.72727299999997h-9.309091c0 2.327273 0 4.654545-2.327273 6.981818h-39.563636c-6.981818 0-9.309091 0-11.636364-2.327273-2.327273-2.327273-2.327273-2.327273-2.327272-6.981818h-9.309091zM947.2 435.2s-2.327273 6.981818-2.327273 18.618182c-2.327273 11.636364-2.327273 13.963636-2.327272 13.963636l9.30909 2.327273c0-2.327273 2.327273-4.654545 4.654546-6.981818h11.636364l27.927272 4.654545c4.654545 0 9.309091 2.327273 9.309091 4.654546 2.327273 2.327273 2.327273 4.654545 2.327273 6.981818l9.309091 2.327273 6.981818-32.581819-9.309091-2.327272c0 2.327273-2.327273 4.654545-4.654545 6.981818h-11.636364l-27.927273-4.654546c-4.654545 0-9.309091-2.327273-11.636363-4.654545-2.327273 0-2.327273-2.327273-2.327273-6.981818l-9.309091-2.327273zM940.218182 472.436364l-6.981818 25.6 34.909091 32.581818-18.618182-4.654546c-6.981818-2.327273-9.309091-2.327273-9.309091-4.654545s-2.327273-4.654545 0-6.981818l-9.309091-2.327273-6.981818 23.272727 9.309091 2.327273c0-2.327273 2.327273-4.654545 4.654545-4.654545s4.654545 0 11.636364 2.327272l48.872727 13.963637 2.327273-11.636364-46.545455-44.218182 32.581818 9.309091c4.654545 2.327273 9.309091 2.327273 9.309091 4.654546 2.327273 2.327273 2.327273 4.654545 0 6.981818l9.309091 2.327272 6.981818-23.272727-9.309091-2.327273c0 2.327273-2.327273 4.654545-4.654545 4.654546s-4.654545 0-11.636364-2.327273l-27.927272-6.981818c-4.654545-2.327273-9.309091-2.327273-11.636364-4.654545 0-2.327273-2.327273-4.654545 0-6.981819l-6.981818-2.327272zM944.872727 579.490909l4.654546-11.636364-23.272728-2.327272 18.618182 13.963636z m25.6-20.945454c9.309091 0 13.963636 0 16.290909-4.654546l9.309091 4.654546-11.636363 25.6-9.309091-4.654546c0-2.327273 2.327273-4.654545 2.327272-4.654545 0-2.327273-2.327273-2.327273-2.327272-2.327273l-11.636364-2.327273-9.309091 18.618182 6.981818 6.981818h9.309091s2.327273-2.327273 2.327273-4.654545l4.654545 2.327272-13.963636 27.927273-9.309091-4.654545c0-4.654545 0-6.981818-4.654545-11.636364L907.636364 567.8545449999999l6.981818-13.963636 55.854545 4.654546zM826.181818 74.47272699999996l18.618182 20.945455 46.545455-9.309091-16.29091 11.636364c-4.654545 2.327273-6.981818 4.654545-9.30909 4.654545-2.327273 0-4.654545 0-6.981819-2.327273l-6.981818 4.654546 16.290909 18.618182 6.981818-6.981819c-2.327273-2.327273-2.327273-4.654545-2.327272-6.981818 0-2.327273 2.327273-4.654545 6.981818-9.309091l39.563636-32.581818-6.981818-9.309091-62.836364 11.636364 25.6-20.945455c4.654545-4.654545 6.981818-4.654545 9.309091-6.981818 2.327273 0 4.654545 0 6.981819 2.327273l6.981818-4.654546-13.963637-11.636363-6.981818 6.981818c2.327273 2.327273 2.327273 4.654545 2.327273 6.981818 0 2.327273-2.327273 4.654545-6.981818 9.309091l-20.945455 18.618182c-4.654545 4.654545-6.981818 4.654545-9.309091 4.654545-2.327273 0-4.654545 0-6.981818-2.327272l-9.309091 2.327272zM104.727273 379.345455c0-223.418182 183.854545-404.945455 409.6-404.945455 225.745455 0 409.6 181.527273 409.6 404.945455 0 223.418182-183.854545 404.945455-409.6 404.945454-228.072727 2.327273-409.6-179.2-409.6-404.945454z m9.309091 0c0 218.763636 179.2 397.963636 400.290909 397.963636s400.290909-179.2 400.290909-397.963636c0-218.763636-179.2-397.963636-400.290909-397.963637-221.090909 2.327273-400.290909 179.2-400.290909 397.963637z"  horiz-adv-x="1024" />

    
    <glyph glyph-name="area" unicode="&#58892;" d="M512.73714 896C333.051807 896 187.381079 750.341066 187.381079 570.655732s325.356062-419.710027 325.356061-419.710027S838.093202 390.958605 838.093202 570.655732 692.422474 896 512.73714 896z m0.094354-617.499528l-0.294856 231.167216h-113.319112l67.2272 221.731819h129.736703l-56.907236-161.581166 112.81196-1.320956zM826.876875 365.90762700000005c-15.86326-21.607058-33.023888-42.883877-50.951142-63.535601 75.907765-26.466287 123.36781-64.219668 123.36781-106.124623 0-80.082928-173.375412-145.069222-387.323029-145.069222s-387.311234 64.927323-387.311234 145.069222c0 42.117251 47.955403 80.035751 124.523646 106.525627-17.903665 20.675313-35.087881 41.97572-50.962936 63.606367C78.178158 315.82926 0.937643 236.93755 0.937643 148.28020500000002c0-152.582157 228.808367-276.280205 511.05646-276.280205s511.068255 123.698049 511.068254 276.280205c0 88.374283-76.756951 167.053696-196.185482 217.627422z"  horiz-adv-x="1024" />

    
    <glyph glyph-name="thermal-po-plant" unicode="&#58936;" d="M628.821111 507.856098H351.77467s1.788189-9.539897 4.371851-26.433404h119.046412l-4.371851-22.854859c-0.198688-0.596785-10.334648-53.859524-15.104596-128.388344-4.570538-67.77055-5.366011-167.340515 15.501972-257.371306l48.096137-121.630075h140.510458l18.881107 37.760768-49.089576 124.015771c-42.133341 179.662762-0.794751 394.901449-0.794751 394.901449M825.184472 781.129641c-10.859905 0-21.094125-2.297552-30.28361-6.473605-12.113444 8.771156-26.942045 13.992668-43.024184 13.992668-17.126153 0-32.789964-5.847919-45.321013-15.663812-12.531772 9.815892-28.195583 15.663811-45.321736 15.663812-23.60048 0-44.694605-11.278233-58.061587-28.613189 32.998767-14.202193 56.181641-46.992157 56.181641-85.003632 0-50.960852-41.561843-92.523418-92.522695-92.523418-16.081417 0-31.537148 3.968695-45.321014 11.905364-8.980682-2.92396-18.379691-4.385578-27.98678-4.385578-7.518341 0-14.828601 0.835211-21.929336 2.505632C480.783642 562.459076 508.560897 540.52974 541.560387 540.52974c24.018085 0 45.529816 11.695839 58.896798 29.657924 4.595103-0.835933 9.398287-1.462341 14.410995-1.462341 40.51783 0 73.307794 32.789964 73.307794 73.307793 0 1.671144-0.208803 3.342287-0.208803 5.012709 6.68313 2.715157 12.949377 6.265525 18.379691 10.651825 12.531049-9.816615 28.194861-15.663811 45.321014-15.663811 10.651825 0 20.885323 2.297552 30.284332 6.473605 12.113444-8.771156 26.942045-13.992668 43.023461-13.992668 40.51783 0 73.308516 32.789964 73.308516 73.307794 0.208803 40.51783-32.581884 73.307794-73.099713 73.307793M451.909631 462.197677H174.777936s41.360265-215.185945-0.762239-395.110974l-48.98409-123.888611 18.869546-37.73837h338.884538l18.868824 37.73837-48.983368 123.888611c-42.313243 179.925029-0.762961 395.110974-0.762961 395.110974M283.638535 507.966641c24.030368 0 45.500193 11.622144 58.893908 29.545936 4.727321-0.984768 9.454642-1.378531 14.379206-1.378531 40.37911 0 73.273114 32.697484 73.273114 73.273114 0 1.773016 0 3.34879-0.197243 5.121084 6.69758 2.560542 12.802709 6.303095 18.515521 10.636653 12.408947-9.848405 28.166683-15.757737 45.302951-15.757737 10.833895 0 21.076063 2.364022 30.136942 6.500337 12.015184-8.863636 26.985395-13.985443 43.136171-13.985442 40.37911 0 73.273836 32.697484 73.273837 73.273113 0 40.37911-32.894727 73.273836-73.273837 73.273836-10.833173 0-21.07534-2.364022-30.136219-6.500337-12.015184 8.863636-26.985395 13.98472-43.136894 13.98472-17.136268 0-32.894004-5.908609-45.302951-15.757736-12.408947 9.849127-28.166683 15.757737-45.303673 15.757736-25.408899 0-47.863493-12.999952-61.060687-32.696761-7.878868 2.955027-16.545262 4.530078-25.409622 4.530078-40.37911 0-73.273114-32.696761-73.273113-73.273113 0-3.939795 0.394485-7.681626 0.984768-11.424179-20.287815-12.999952-33.87805-35.849031-33.87805-61.848935-0.197965-40.57563 32.696761-73.273114 73.075871-73.273114"  horiz-adv-x="1024" />

    
    <glyph glyph-name="flow" unicode="&#58946;" d="M493.714286 694.857143m-135.314286 0a135.314286 135.314286 0 1 1 270.628571 0 135.314286 135.314286 0 1 1-270.628571 0ZM394.971429 171.885714c0 73.142857-62.171429 135.314286-135.314286 135.314286s-135.314286-62.171429-135.314286-135.314286 62.171429-135.314286 135.314286-135.314285 135.314286 62.171429 135.314286 135.314285zM669.257143 735.085714c0-10.971429 3.657143-25.6 3.657143-40.228571 0-40.228571-14.628571-76.8-32.914286-106.057143 84.114286-43.885714 142.628571-135.314286 142.628571-234.057143v-3.657143c58.514286-3.657143 109.714286-36.571429 138.971429-84.114285 7.314286 29.257143 7.314286 54.857143 7.314286 84.114285 0 171.885714-106.057143 321.828571-259.657143 384zM599.771429 102.39999999999998c-29.257143-10.971429-58.514286-14.628571-87.771429-14.628571-32.914286 0-62.171429 7.314286-87.771429 14.628571-21.942857-51.2-69.485714-87.771429-124.342857-102.4 62.171429-36.571429 135.314286-58.514286 212.114286-58.514286s149.942857 21.942857 212.114286 58.514286c-54.857143 10.971429-98.742857 51.2-124.342857 102.4zM245.028571 351.08571400000005c0 95.085714 47.542857 175.542857 117.028572 223.085715-29.257143 32.914286-47.542857 73.142857-47.542857 120.685714 0 7.314286 0 14.628571 3.657143 25.6-131.657143-69.485714-219.428571-208.457143-219.428572-365.714286 0-29.257143 3.657143-58.514286 7.314286-84.114286 29.257143 43.885714 80.457143 76.8 138.971428 80.457143zM764.342857 307.20000000000005c-73.142857 0-135.314286-62.171429-135.314286-135.314286s62.171429-135.314286 135.314286-135.314285 135.314286 62.171429 135.314286 135.314285-62.171429 135.314286-135.314286 135.314286z"  horiz-adv-x="1024" />

    
    <glyph glyph-name="emit" unicode="&#58956;" d="M950.857143 548.5714290000001V650.971429C950.857143 746.057143 874.057143 822.857143 778.971429 822.857143H245.028571C149.942857 822.857143 73.142857 746.057143 73.142857 650.971429v-102.4h877.714286zM73.142857 438.857143v-497.371429c0-36.571429 29.257143-69.485714 69.485714-69.485714h738.742858c36.571429 0 69.485714 29.257143 69.485714 69.485714V438.857143H73.142857z m252.342857-416.914286l113.371429 146.285714-113.371429 146.285715 376.685715-146.285715-376.685715-146.285714z"  horiz-adv-x="1024" />

    
    <glyph glyph-name="reply" unicode="&#58957;" d="M950.857143 548.5714290000001V650.971429C950.857143 746.057143 874.057143 822.857143 778.971429 822.857143H245.028571C149.942857 822.857143 73.142857 746.057143 73.142857 650.971429v-102.4h877.714286zM73.142857 438.857143v-497.371429c0-36.571429 29.257143-69.485714 69.485714-69.485714h738.742858c36.571429 0 69.485714 29.257143 69.485714 69.485714V438.857143H73.142857z m625.371429-416.914286l-376.685715 146.285714 376.685715 146.285715-113.371429-146.285715 113.371429-146.285714z"  horiz-adv-x="1024" />

    
    <glyph glyph-name="defect" unicode="&#58958;" d="M849.92 404.992h-63.488v168.96c0 46.592-37.888 84.48-84.48 84.48h-168.96V721.92c0 58.368-47.104 105.472-105.472 105.472S322.048 780.288 322.048 721.92v-63.488h-168.96c-46.592 0-83.968-37.888-83.968-84.48v-160.768h62.976c62.976 0 114.176-51.2 114.176-114.176s-51.2-114.176-114.176-114.176H68.608v-160.768c0-46.592 37.888-84.48 84.48-84.48h160.768v63.488c0 62.976 51.2 114.176 114.176 114.176s114.176-51.2 114.176-114.176v-63.488h160.768c46.592 0 84.48 37.888 84.48 84.48v168.96H849.92c58.368 0 105.472 47.104 105.472 105.472s-47.104 106.496-105.472 106.496z"  horiz-adv-x="1024" />

    
    <glyph glyph-name="statistical" unicode="&#58959;" d="M472.064 36.351999999999975h171.008V401.92c0 39.424-38.912 71.68-78.336 71.68h-92.16c-39.424 0-71.68-32.256-71.68-71.68v-278.016h-0.512v-87.04h69.632c0.512-0.512 1.536-0.512 2.048-0.512z m285.696 0.512h171.008V644.096c0 39.424-32.256 71.68-71.68 71.68H757.76c-39.424 0-71.68-32.256-71.68-71.68v-519.68h-0.512v-87.04h69.632c1.024 0 1.536-0.512 2.56-0.512zM6.656 15.871999999999957v-70.144h1009.152v70.144H6.656z m174.592 18.944h176.128V754.688c0 39.424-20.992 71.68-60.928 71.68H188.416c-39.424 0-71.68-32.256-71.68-71.68v-719.872H179.2c0.512 0.512 1.536 0 2.048 0z"  horiz-adv-x="1024" />

    
    <glyph glyph-name="generate" unicode="&#58960;" d="M736.256 640H320c-15.872 0-31.744-15.872-31.744-31.744s15.872-31.744 31.744-31.744h415.744c15.872 0 31.744 15.872 31.744 31.744s-15.36 31.744-31.232 31.744z m0-192H320c-15.872 0-31.744-15.872-31.744-31.744s15.872-31.744 31.744-31.744h415.744c15.872 0 31.744 15.872 31.744 31.744s-15.36 31.744-31.232 31.744zM192 736.256c0 35.328 28.672 64 64 64h543.744c35.328 0 64-28.672 64-64v-512h96.256V832C960 867.328 931.328 896 896 896H159.744c-35.328 0-64-28.672-64-64v-608.256h96.256V736.256z m800.256-512H64c-19.456 0-31.744-12.8-31.744-31.744v-287.744c0-19.456 12.8-31.744 31.744-31.744h927.744c19.456 0 31.744 12.8 31.744 31.744v287.744c0.512 15.36-12.288 31.744-31.232 31.744zM671.744 0H384v96.256h287.744V0z"  horiz-adv-x="1024" />

    
    <glyph glyph-name="ac-check" unicode="&#58961;" d="M421.376 850.944c-239.104 0-378.88-59.392-378.88-133.12v-79.36c0-73.216 139.776-133.12 378.368-133.12 239.104 0 405.504 59.392 405.504 133.12V717.8240000000001c0.512 73.728-165.888 133.12-404.992 133.12z m-33.792-689.152c-172.032 6.144-272.384 43.008-325.12 93.184-13.824-12.8-19.968-26.112-19.968-40.448v-107.52c0-74.24 146.432-134.144 396.8-134.144 25.088 0 49.152 0.512 73.216 2.048-64.512 43.52-109.568 110.592-124.928 186.88z m62.464 268.8h-15.872c-201.216 0-314.368 39.936-371.2 94.72-13.312-12.8-19.968-26.624-19.968-40.448v-108.032c0-68.608 123.392-125.44 336.896-133.632 0 68.096 25.088 135.168 70.144 187.392z m518.144-434.688s-173.056 159.232-141.824 134.144c-17.92-28.16-66.048-44.544-93.696-62.464-37.376 35.84 164.864-142.336 164.864-142.336 19.968-17.92 50.176-16.896 69.12 2.048 18.944 18.432 19.456 48.64 1.536 68.608zM883.2 111.10400000000004c46.592 72.704 50.176 164.864 8.704 240.64-40.96 75.776-120.32 122.88-206.336 123.392-127.488-4.096-228.352-108.032-228.352-235.52 0-126.976 100.864-231.424 228.352-235.52 47.104 0 91.136 13.824 128 37.888l0.512-0.512c27.648 18.432 50.688 41.984 69.12 69.632z m-197.632-44.544c-95.744 0-173.056 77.312-173.056 172.544s77.312 172.544 173.056 172.544c95.232 0 172.544-77.824 172.544-172.544 0-94.72-77.312-172.544-172.544-172.544z"  horiz-adv-x="1024" />

    
    <glyph glyph-name="verification" unicode="&#58962;" d="M928.768 80.38400000000001l-295.424-0.512v-71.68l97.28-24.576v-49.152H293.376v49.152l97.28 24.576v71.68l-295.424 0.512c-24.576 0-44.544 19.968-44.544 44.544V716.288c0 24.576 19.968 44.544 44.544 44.032h163.328c-13.824-22.528-24.064-47.104-30.208-72.704H123.904v-461.824h776.704V687.616h-177.152c-6.144 25.6-16.384 50.176-30.208 72.704h236.032c24.576 0 44.544-19.456 44.544-44.032v-591.36c-0.512-24.576-20.48-44.544-45.056-44.544z m-162.816 295.424c17.408-17.408 17.92-45.568 0.512-62.976l-0.512-0.512c-17.408-17.408-46.08-17.408-63.488 0l-131.584 131.584c-100.864-53.248-225.792-14.336-279.04 87.04s-14.336 225.792 87.04 279.04c29.696 15.872 62.976 23.552 96.768 23.552 113.664 0 206.336-92.672 206.336-206.336 0-47.104-15.872-90.112-41.984-124.928l125.952-126.464zM475.136 758.2719999999999c-72.704 0-131.584-58.88-131.584-131.584s58.88-131.584 131.584-131.584 131.584 58.88 131.584 131.584S547.84 758.2719999999999 475.136 758.2719999999999z"  horiz-adv-x="1024" />

    
    <glyph glyph-name="apply" unicode="&#58963;" d="M914.47 823.365C898.793 857.73 866.987 896 802.35 896H158.934S30.814 892.032 30.75 769.672v-636.888s3.456-79.227 64.06-115.321v-12.351s0.064-1.664 0.32-4.032h-0.32l0.384-0.576c2.24-22.91 18.815-128.44 133.112-128.44h636.12c110.137 0 128.824 132.984 128.824 133.048V705.8679999999999s-6.848 89.018-78.78 117.497z m-275.694-75.9c16.127 16.127 42.43 16.127 58.556 0l58.557-58.556c16.127-16.127 16.127-42.43 0-58.556l-37.502-37.502-117.113 117.113 37.502 37.501zM280.974 389.728L554.557 663.31 671.67 546.198 398.087 272.54999999999995l-168.31-51.197 51.197 168.374z m646.808-452.516H158.934V1.080000000000041h704.788V766.984h64.06v-829.772z"  horiz-adv-x="1024" />

    
    <glyph glyph-name="fu-check" unicode="&#58964;" d="M933.376 64.51199999999994l-212.48 214.016c-2.56 2.56-5.12 4.608-7.68 6.656 35.84 55.296 56.832 121.856 56.832 193.024 0 195.584-157.184 354.304-351.232 354.304-194.048 0-351.232-158.72-351.232-354.304s157.184-354.304 351.232-354.304c70.656 0 136.192 20.992 191.488 57.344l6.144-7.68 212.48-214.016c14.336-14.336 33.28-22.016 52.224-22.016 18.944 0 37.888 7.168 52.224 22.016 29.184 28.672 29.184 75.776 0 104.96M418.816 235.51999999999998c-132.608 0-240.64 108.544-240.64 242.176 0 133.632 108.032 242.176 240.64 242.176s240.64-108.544 240.64-242.176c0-133.12-108.032-242.176-240.64-242.176"  horiz-adv-x="1024" />

    
    <glyph glyph-name="admin" unicode="&#58965;" d="M760.32 365.05600000000004c-43.52-29.184-95.744-46.08-152.064-46.08-55.808 0-108.032 16.896-151.552 45.568-117.76-56.832-199.168-177.664-199.168-317.44 0-147.968 701.952-145.92 701.952 0 0 140.288-81.408 261.632-199.168 317.952z m-388.096 230.4c0 130.56 105.472 236.544 236.032 236.544s236.032-105.984 236.032-236.544c0-130.56-105.472-236.544-236.032-236.544-130.048 0-236.032 105.472-236.032 236.544zM216.576 35.327999999999975c0-5.632 1.024-10.752 2.56-15.872-88.576 14.336-154.624 41.984-154.624 84.48 0 120.832 70.144 225.28 172.032 274.432 35.328-23.552 77.824-37.888 123.392-39.424-87.552-71.68-143.36-181.248-143.36-303.616zM333.312 595.456c0 59.904 18.944 115.712 51.712 160.768-5.632 0.512-11.264 0.512-16.896 0.512-107.008 0-194.048-87.04-194.048-194.56s87.04-194.56 194.048-194.56c24.064 0 47.104 4.608 68.608 12.8-63.488 50.176-103.424 128-103.424 215.04z"  horiz-adv-x="1024" />

    
    <glyph glyph-name="com-debug" unicode="&#58968;" d="M972.8 131.65714300000002H658.285714v-95.085714h-234.057143v95.085714H51.2c-29.257143 0-51.2-25.6-51.2-58.514286v-87.771428c0-32.914286 21.942857-58.514286 51.2-58.514286h917.942857c29.257143 0 51.2 25.6 51.2 58.514286v87.771428c3.657143 32.914286-18.285714 58.514286-47.542857 58.514286zM899.657143 830.171429H124.342857c-29.257143 0-51.2-21.942857-51.2-51.2v-522.971429c0-29.257143 21.942857-51.2 51.2-51.2h775.314286c29.257143 0 51.2 21.942857 51.2 51.2V778.971429c0 29.257143-21.942857 51.2-51.2 51.2z m-522.971429-438.857143l-43.885714-32.914286-102.4 138.971429L329.142857 672.914286l47.542857-25.6-84.114285-146.285715 84.114285-109.714285z m91.428572-36.571429l-54.857143 29.257143 138.971428 296.228571 54.857143-25.6-138.971428-299.885714z m226.742857 3.657143l-43.885714 32.914286 80.457142 109.714285-84.114285 146.285715 47.542857 25.6 98.742857-175.542857-98.742857-138.971429z"  horiz-adv-x="1024" />

    
    <glyph glyph-name="com-adjust" unicode="&#58969;" d="M972.8 131.65714300000002H658.285714v-95.085714h-234.057143v95.085714H51.2c-29.257143 0-51.2-25.6-51.2-58.514286v-87.771428c0-32.914286 21.942857-58.514286 51.2-58.514286h917.942857c29.257143 0 51.2 25.6 51.2 58.514286v87.771428c3.657143 32.914286-18.285714 58.514286-47.542857 58.514286zM899.657143 830.171429H124.342857c-29.257143 0-51.2-21.942857-51.2-51.2v-522.971429c0-29.257143 21.942857-51.2 51.2-51.2h775.314286c29.257143 0 51.2 21.942857 51.2 51.2V778.971429c0 29.257143-21.942857 51.2-51.2 51.2z m-512-234.057143H343.771429v-274.285715H281.6V596.114286H241.371429V658.285714h43.885714V724.114286h62.171428v-65.828572h43.885715v-62.171428z m197.485714-204.8h-43.885714v-69.485715h-62.171429v69.485715H438.857143v62.171428h40.228571V724.114286h62.171429v-270.628572H585.142857v-62.171428z m193.828572 204.8h-43.885715v-274.285715h-62.171428V596.114286h-43.885715V658.285714h43.885715V724.114286h62.171428v-65.828572h43.885715v-62.171428z"  horiz-adv-x="1024" />

    
    <glyph glyph-name="com-signal" unicode="&#58970;" d="M972.8 131.65714300000002H658.285714v-95.085714h-234.057143v95.085714H51.2c-29.257143 0-51.2-25.6-51.2-58.514286v-87.771428c0-32.914286 21.942857-58.514286 51.2-58.514286h917.942857c29.257143 0 51.2 25.6 51.2 58.514286v87.771428c3.657143 32.914286-18.285714 58.514286-47.542857 58.514286zM899.657143 830.171429H124.342857c-29.257143 0-51.2-21.942857-51.2-51.2v-522.971429c0-29.257143 21.942857-51.2 51.2-51.2h775.314286c29.257143 0 51.2 21.942857 51.2 51.2V778.971429c0 29.257143-21.942857 51.2-51.2 51.2zM281.6 380.342857c-25.6 40.228571-36.571429 87.771429-36.571429 135.314286 0 47.542857 14.628571 91.428571 36.571429 131.657143l54.857143-14.628572c-21.942857-32.914286-32.914286-73.142857-32.914286-117.028571 0-43.885714 14.628571-87.771429 36.571429-120.685714l-58.514286-14.628572z m109.714286 32.914286c-25.6 29.257143-40.228571 65.828571-40.228572 106.057143 0 36.571429 14.628571 73.142857 36.571429 102.4l58.514286-18.285715c-25.6-18.285714-40.228571-51.2-40.228572-84.114285 0-36.571429 18.285714-69.485714 47.542857-87.771429l-62.171428-18.285714z m120.685714 54.857143c-25.6 0-47.542857 21.942857-47.542857 47.542857 0 29.257143 21.942857 51.2 47.542857 51.2s47.542857-21.942857 47.542857-47.542857c0-29.257143-21.942857-51.2-47.542857-51.2z m120.685714-54.857143l-62.171428 18.285714c29.257143 18.285714 47.542857 51.2 47.542857 87.771429 0 32.914286-14.628571 65.828571-40.228572 84.114285l58.514286 18.285715c21.942857-29.257143 36.571429-62.171429 36.571429-102.4 0-43.885714-14.628571-80.457143-40.228572-106.057143z m109.714286-32.914286l-54.857143 14.628572c25.6 32.914286 40.228571 76.8 40.228572 120.685714 0 43.885714-14.628571 84.114286-36.571429 117.028571l54.857143 14.628572c21.942857-40.228571 36.571429-84.114286 36.571428-131.657143 0-47.542857-14.628571-95.085714-40.228571-135.314286z"  horiz-adv-x="1024" />

    
    <glyph glyph-name="com-test" unicode="&#58971;" d="M972.8 131.65714300000002H658.285714v-95.085714h-234.057143v95.085714H51.2c-29.257143 0-51.2-25.6-51.2-58.514286v-87.771428c0-32.914286 21.942857-58.514286 51.2-58.514286h917.942857c29.257143 0 51.2 25.6 51.2 58.514286v87.771428c3.657143 32.914286-18.285714 58.514286-47.542857 58.514286zM899.657143 830.171429H124.342857c-29.257143 0-51.2-21.942857-51.2-51.2v-522.971429c0-29.257143 21.942857-51.2 51.2-51.2h775.314286c29.257143 0 51.2 21.942857 51.2 51.2V778.971429c0 29.257143-21.942857 51.2-51.2 51.2zM223.085714 669.257143h402.285715v-62.171429h-402.285715V669.257143z m402.285715-303.542857h-402.285715v62.171428h402.285715v-62.171428z m175.542857 120.685714H223.085714V548.5714290000001h574.171429v-62.171429z"  horiz-adv-x="1024" />

    
    <glyph glyph-name="reload" unicode="&#58972;" d="M1020.614792 392.730191l-185.388165 230.579739c-19.001003 25.677031-57.51655 25.677031-77.031093 0L572.807369 392.730191c-12.838516-19.001003 0-44.678034 19.001003-44.678035h70.355066c0-134.547643 0-307.097292-243.418255-447.807422-6.162487-6.162487 0-12.838516 6.162487-12.838515 454.48345 70.355065 492.998997 377.452357 492.998997 460.645937h77.031093c25.677031-0.513541 38.515547 25.16349 25.677032 44.678035zM438.259726 334.7001h-77.031093c0 134.547643 0 307.097292 243.418255 447.807423 6.162487 6.162487 0 12.838516-6.162488 12.838515-454.48345-70.355065-492.998997-377.452357-492.998997-460.645938h-77.031093c-25.677031 0-38.515547-25.677031-19.001003-44.678034l185.388165-230.579739c19.001003-25.677031 57.51655-25.677031 77.031093 0L457.260729 290.022066c12.838516 19.001003 0 44.678034-19.001003 44.678034z"  horiz-adv-x="1027" />

    
    <glyph glyph-name="addfolder" unicode="&#58979;" d="M769.536 646.144H449.024v48.64c0 29.184-24.064 53.248-53.248 53.248H128.512c-29.184 0-53.248-24.064-53.248-53.248v-155.136h748.032V592.896c-0.512 29.184-25.088 53.248-53.76 53.248zM274.944 500.224h-199.68v-441.344c0-29.184 24.064-53.248 53.248-53.248h641.024c29.184 0 53.248 24.064 53.248 53.248V107.51999999999998 500.736l-547.84-0.512z m299.008-266.752H468.48v-104.96H430.08v104.96H324.608v38.912H430.08v104.96h38.912v-104.96h104.96v-38.912z"  horiz-adv-x="1024" />

    
    <glyph glyph-name="folderopen" unicode="&#58980;" d="M837.12 58.879999999999995c0-29.184-24.064-53.248-53.248-53.248H114.176l94.72 441.856c0 29.184 24.064 53.248 53.248 53.248h613.888c29.184 0 53.248-24.064 53.248-53.248l-92.16-388.608zM220.672 539.136h602.112V592.896c0 29.184-24.064 53.248-53.248 53.248H449.024v48.64c0 29.184-24.064 53.248-53.248 53.248H128.512c-29.184 0-53.248-24.064-53.248-53.248v-635.904l94.72 427.008c-2.56 31.744 21.504 53.248 50.688 53.248z"  horiz-adv-x="1024" />

    
    <glyph glyph-name="folder" unicode="&#58981;" d="M274.944 500.224h-199.68v-441.344c0-29.184 24.064-53.248 53.248-53.248h641.024c29.184 0 53.248 24.064 53.248 53.248V107.51999999999998 500.736l-547.84-0.512zM769.536 646.144H449.024v48.64c0 29.184-24.064 53.248-53.248 53.248H128.512c-29.184 0-53.248-24.064-53.248-53.248v-155.136h748.032V592.896c-0.512 29.184-25.088 53.248-53.76 53.248z"  horiz-adv-x="1024" />

    
    <glyph glyph-name="add" unicode="&#58982;" d="M86.528 460.288H936.96c38.912 0 70.656-31.744 70.656-71.168 0-38.912-31.744-70.656-70.656-70.656H86.528c-38.912 0-70.656 31.744-70.656 70.656s31.744 71.168 70.656 71.168z m425.472 424.96c38.912 0 70.656-31.744 70.656-70.656V-35.84000000000003c0-38.912-31.744-70.656-70.656-70.656s-70.656 31.744-70.656 70.656V814.592c0 38.912 31.744 70.656 70.656 70.656z"  horiz-adv-x="1024" />

    
    <glyph glyph-name="edit" unicode="&#58983;" d="M765.952 46.08000000000004H173.568V638.4639999999999h344.064V736.768H173.568c-54.272 0-98.816-44.032-98.816-98.816V46.08000000000004c0-54.272 44.032-98.816 98.816-98.816h592.384c54.272 0 98.816 44.032 98.816 98.816V390.144h-98.816V46.08000000000004zM357.376 369.15200000000004l-36.864-36.864v-139.776h139.776l36.864 36.864 20.992 20.992L949.248 680.96l-139.776 139.776-431.104-430.592-20.992-20.992z"  horiz-adv-x="1024" />

    
    <glyph glyph-name="save" unicode="&#58984;" d="M846.848-62.976H175.104l-4.608 1.536c-38.912 7.168-91.136 51.712-103.936 88.576-2.048 6.144-3.584 13.312-5.12 19.968V718.336c0.512 1.536 1.536 3.072 1.536 4.608 8.192 42.496 59.392 95.232 101.376 106.496 3.584 1.024 7.168 2.048 11.264 2.56H773.12c-44.544 9.728 151.04-15.872 189.44-187.392v-598.016l-1.536-4.608c-8.192-42.496-61.44-91.648-102.912-102.912-4.096-0.512-7.68-1.536-11.264-2.048z m-335.872 114.688h294.4c24.576 0 37.376 12.8 37.376 36.864v230.4c0 24.064-12.8 37.376-36.864 37.376H216.576c-23.552 0-36.864-13.312-36.864-36.864v-231.424c0-4.096 0-7.68 1.024-11.264 4.096-16.896 16.384-25.6 36.352-25.6 96.256 0.512 198.144 0.512 293.888 0.512z m-16.384 420.864h188.928c26.112 0 38.912 12.8 38.912 38.912V674.816c0 26.624-12.288 38.912-38.912 38.912H277.504c-26.112 0-38.912-12.8-38.912-38.4v-163.84c0-25.6 12.8-38.4 38.4-38.4 69.12-0.512 148.992-0.512 217.6-0.512z m47.104 183.296h118.272v-121.344h-118.272V655.8720000000001z"  horiz-adv-x="1024" />

    
    <glyph glyph-name="remove" unicode="&#58985;" d="M226.816 45.567999999999984c0-59.392 47.616-110.08 107.008-110.08h356.352c58.88 0 107.008 50.688 107.008 110.08l71.168 576H155.648l71.168-576z m397.312 463.872h70.144v-462.336h-70.144V509.44z m-154.624 0h84.48v-462.336H469.504V509.44z m-139.776 0h70.144v-462.336H329.728V509.44z m520.704 251.904h-231.424s-15.872 70.144-35.84 70.144H440.832c-19.456 0-35.84-70.144-35.84-70.144H173.568c-29.696 0-53.248-25.6-53.248-55.296v-56.32h783.872v56.32c0 29.696-24.064 55.296-53.76 55.296z"  horiz-adv-x="1024" />

    
    <glyph glyph-name="close" unicode="&#58986;" d="M155.136-47.615999999999985c-19.456 0-38.4 7.168-53.248 22.016-29.184 29.184-29.184 76.8 0 105.984L815.616 793.6c29.184 29.184 76.8 29.184 105.984 0 29.184-29.184 29.184-76.8 0-105.984L208.384-25.600000000000023c-14.848-14.848-33.792-22.016-53.248-22.016zM868.864-47.615999999999985c-19.456 0-38.4 7.168-53.248 22.016L102.4 687.616c-29.184 29.184-29.184 76.8 0 105.984 29.184 29.184 76.8 29.184 105.984 0L921.6 80.38400000000001c29.184-29.184 29.184-76.8 0-105.984-14.336-14.848-33.792-22.016-52.736-22.016z"  horiz-adv-x="1024" />

    
    <glyph glyph-name="ok" unicode="&#58987;" d="M512 896C228.864 896 0 667.136 0 384s228.864-512 512-512 512 228.864 512 512S795.136 896 512 896m244.736-392.192L466.944 204.79999999999995c-8.192-9.728-24.064-12.8-36.864-12.8s-27.136 3.072-36.864 12.8l-126.464 131.072c-15.872 15.872-15.872 43.008 0 59.392s41.472 15.872 57.344 0l105.472-110.592L697.344 563.2c15.872 15.872 41.472 15.872 57.344 0 16.384-15.872 16.384-43.008 2.048-59.392"  horiz-adv-x="1024" />

    
    <glyph glyph-name="cut" unicode="&#58988;" d="M959.488 539.648l-6.144 104.448-0.512 8.192-7.68-2.56-2.56-1.024v2.048l-7.68-2.56-249.856-88.064 84.992 256 2.56 7.68h-11.264l1.024 4.096h-8.192l-104.96 3.072h-1.024c-3.584-0.512-7.168-1.536-10.24-2.56h-2.048c-40.96-7.68-71.68-33.792-84.992-72.192v-1.024l-60.416-266.24-171.008-60.416c-31.744 66.56-111.616 94.72-178.176 62.976-13.824-6.656-26.624-15.872-37.888-26.624-51.2-52.224-50.176-136.192 2.56-186.88 52.736-50.688 137.216-49.664 187.904 2.56 6.656 7.168 13.312 15.36 18.432 24.064l144.896 36.864-36.864-164.864c-59.392-41.984-73.216-124.416-31.232-183.296 4.608-6.656 10.24-12.8 15.872-18.432 52.736-50.688 136.704-49.664 187.904 2.56 51.2 52.224 50.176 136.192-2.56 186.88-10.752 10.24-23.04 18.944-36.864 25.088l62.976 192.512L887.296 450.56h1.024c41.472 18.432 64 46.08 70.656 87.04v0.512l0.512 1.536zM240.128 333.312c-22.016-22.528-58.368-23.04-80.896-1.024s-23.04 57.856-1.536 80.384l0.512 0.512c22.016 22.528 58.368 23.04 81.408 1.024 22.016-22.528 22.528-58.368 0.512-80.896z m299.52-303.616c-22.016-22.528-58.368-23.04-80.896-1.024s-23.04 57.856-1.536 80.384l0.512 0.512c22.016 22.528 58.368 23.04 80.896 1.024s23.04-58.368 1.024-80.896z"  horiz-adv-x="1024" />

    
    <glyph glyph-name="search" unicode="&#58989;" d="M933.376 64.51199999999994l-212.48 214.016c-2.56 2.56-5.12 4.608-7.68 6.656 35.84 55.296 56.832 121.856 56.832 193.024 0 195.584-157.184 354.304-351.232 354.304-194.048 0-351.232-158.72-351.232-354.304s157.184-354.304 351.232-354.304c70.656 0 136.192 20.992 191.488 57.344l6.144-7.68 212.48-214.016c14.336-14.336 33.28-22.016 52.224-22.016 18.944 0 37.888 7.168 52.224 22.016 29.184 28.672 29.184 75.776 0 104.96M418.816 235.51999999999998c-132.608 0-240.64 108.544-240.64 242.176 0 133.632 108.032 242.176 240.64 242.176s240.64-108.544 240.64-242.176c0-133.12-108.032-242.176-240.64-242.176"  horiz-adv-x="1024" />

    
    <glyph glyph-name="help" unicode="&#58990;" d="M978.944 579.072c-26.624 61.44-62.464 114.688-108.032 159.744-45.568 45.568-98.816 81.408-160.256 108.032-61.44 27.136-126.464 39.936-196.096 39.936S379.392 872.96 318.976 846.336 204.8 783.872 159.232 738.304C113.152 693.76 76.8 640 51.2 579.072s-39.424-126.464-39.424-196.096 12.8-135.168 39.424-195.584c26.624-60.928 62.464-114.176 108.032-159.744s98.816-81.408 159.744-108.032c60.928-26.624 125.952-39.424 195.584-39.424s135.168 12.8 196.096 39.424c61.44 26.624 114.688 62.464 160.256 108.032s81.408 98.816 108.032 159.744c26.624 60.928 39.424 125.952 39.424 195.584s-13.312 135.168-39.424 196.096z m-419.84-488.96c-11.776-11.776-26.624-17.92-44.032-17.92-17.408 0-32.768 6.144-44.032 17.92-11.776 11.776-17.92 26.624-17.92 43.52 0 17.92 6.144 32.768 17.92 44.032 11.776 11.776 26.624 17.92 44.032 17.92s32.768-6.144 44.032-17.92c11.776-11.776 17.92-26.624 17.92-44.032-0.512-16.896-6.144-31.232-17.92-43.52z m148.48 421.888c-1.536-24.064-9.728-45.568-24.064-64s-30.72-35.328-49.152-50.176-33.28-28.16-47.616-40.448c-13.824-12.288-20.992-23.552-20.48-34.304v-24.064c0.512-12.288-3.584-23.04-12.8-32.768-9.216-9.728-21.504-14.848-36.864-15.36-15.872 0.512-28.16 5.632-37.888 14.848-9.728 9.216-13.824 18.432-13.824 28.672l-1.024 38.912c0.512 13.312 4.608 26.112 11.776 37.888s15.872 22.528 26.624 32.256c10.752 9.728 22.016 18.944 33.28 28.16 11.776 9.216 23.04 17.92 33.28 27.648 10.752 9.216 18.944 18.432 26.112 28.16 6.656 9.728 10.24 20.48 10.24 32.256 1.536 23.04-7.168 41.984-25.088 57.344-17.92 15.36-42.496 23.04-73.216 23.04-15.872 0-29.184-3.584-41.984-11.264-12.8-7.68-23.04-16.896-32.256-27.648-8.192-10.752-15.872-22.528-20.992-33.792-5.12-11.776-7.68-22.016-7.68-29.696 0-13.312-5.12-23.552-15.36-30.72s-21.504-10.752-33.28-10.24c-12.288 0.512-23.04 4.608-33.792 12.8-10.752 7.68-16.384 20.992-16.896 38.912-0.512 14.848 2.56 33.28 9.216 55.296 6.656 22.016 18.432 43.52 35.328 64 16.896 20.992 38.912 38.4 66.56 52.736C441.856 694.2719999999999 476.16 701.44 517.12 701.44c33.28 0 61.952-5.12 86.528-14.848 24.576-9.728 44.544-23.04 60.416-39.424 15.872-16.896 27.136-36.352 33.28-58.88 8.192-25.088 11.264-50.688 10.24-76.288z"  horiz-adv-x="1024" />

    
    <glyph glyph-name="no" unicode="&#58991;" d="M325.12 164.35199999999998c-8.704 0-17.408 3.072-23.04 9.216-13.312 12.8-13.312 33.792 0 47.104L465.408 384 302.08 547.328c-13.312 12.8-13.312 33.792 0 46.592 12.8 13.312 33.792 13.312 46.592 0L512 430.592 675.328 593.9200000000001c12.8 13.312 33.792 13.312 47.104 0 12.8-12.8 12.8-33.792 0-46.592L559.104 384l163.328-163.328c12.8-12.8 12.8-33.792 0-47.104-6.656-6.656-14.848-9.216-23.552-9.216-8.192 0-16.896 3.072-23.04 9.216l-163.84 163.328-163.328-163.328c-6.656-6.144-14.848-9.216-23.552-9.216zM512 864.256c-264.704 0-480.256-215.04-480.256-480.256s215.04-480.256 480.256-480.256 480.256 214.528 480.256 480.256c0 264.704-215.04 480.256-480.256 480.256z"  horiz-adv-x="1024" />

    
    <glyph glyph-name="print" unicode="&#58992;" d="M286.208 449.024c0-14.848 12.288-27.136 27.136-27.136H693.76c1.024 0 1.536 0.512 2.56 0.512h0.512c13.312 2.56 23.04 14.336 22.016 28.16 0 1.024-7.68 88.064 38.912 274.944v0.512c0 1.024 0.512 2.048 0.512 2.56 0 1.024 0.512 2.048 0.512 2.56V732.16v2.048c0 1.024 0 2.048-0.512 3.072l-0.512 2.56c0 1.024-0.512 1.536-1.024 2.56s-0.512 1.536-1.024 2.56-1.024 1.536-1.024 2.048c-0.512 0.512-1.024 1.536-1.536 2.048s-1.024 1.536-1.536 2.048c-0.512 0.512-1.024 1.024-2.048 1.536-0.512 0.512-1.536 1.024-2.048 1.536-0.512 0.512-1.536 1.024-2.048 1.536-0.512 0.512-1.536 1.024-2.048 1.024-1.024 0.512-2.048 0.512-2.56 1.024-0.512 0-1.024 0.512-2.048 0.512h-0.512c-1.024 0-2.048 0.512-2.56 0.512l-2.56 0.512H351.744c-1.024 0-2.048 0-2.56-0.512-1.024 0-2.048-0.512-2.56-0.512-1.024 0-1.536-0.512-2.56-0.512-1.024-0.512-1.536-1.024-2.56-1.024-0.512-0.512-1.536-0.512-2.048-1.024-1.024-0.512-1.536-1.024-2.048-1.536-0.512-0.512-1.536-1.024-2.048-1.536-0.512-0.512-1.024-1.536-2.048-2.048-0.512-0.512-1.024-1.536-1.536-2.048-0.512-0.512-1.024-1.536-1.536-2.048-0.512-0.512-1.024-1.536-1.024-2.048-0.512-1.024-0.512-2.048-1.024-2.56 0-0.512-0.512-1.024-0.512-2.048-43.008-172.544-41.984-263.68-40.96-286.208 0-2.048-0.512-3.584-0.512-4.608z m113.664 246.272h244.736c14.336 0 25.6-11.776 25.6-25.6s-11.776-25.6-25.6-25.6H399.872c-14.336 0-25.6 11.776-25.6 25.6s11.776 25.6 25.6 25.6z m-17.408-135.68h244.736c14.336 0 25.6-11.776 25.6-25.6 0-14.336-11.776-25.6-25.6-25.6H382.464c-14.336 0-25.6 11.776-25.6 25.6s11.776 25.6 25.6 25.6zM832.512 449.024v-53.76H185.344V449.024c-29.696-0.512-53.76-24.576-53.76-54.784v-322.048c0-30.208 24.576-54.784 55.296-54.784h645.12c30.72 0 55.296 24.576 55.296 54.784V394.24c-0.512 29.696-24.576 54.272-54.784 54.784z m-53.76-310.272c0-14.336-5.632-28.16-15.872-38.4s-23.552-15.872-38.4-15.872H292.864c-14.336 0-28.16 5.632-38.4 15.872s-15.872 23.552-15.872 38.4v53.76H778.24l0.512-53.76z m13.312 161.792c-9.728 0-18.432 5.12-23.552 13.312-4.608 8.192-4.608 18.432 0 27.136 4.608 8.192 13.824 13.312 23.552 13.312 14.848 0 27.136-12.288 27.136-27.136 0-14.336-12.288-26.624-27.136-26.624z"  horiz-adv-x="1024" />

    
    <glyph glyph-name="addnew" unicode="&#58993;" d="M640 608.256V832H192c-70.656 0-128-57.344-128-128V0c0-70.656 57.344-128 128-128H768c70.656 0 128 57.344 128 128V576h-224.256c-17.408 0-31.744 14.336-31.744 32.256z m64-256c0-17.408-14.336-31.744-31.744-31.744H512v-159.744c0-17.408-14.336-31.744-31.744-31.744s-31.744 14.336-31.744 31.744v159.744H287.744c-17.92 0-31.744 14.336-31.744 31.744s14.336 31.744 31.744 31.744h159.744V543.744c0 17.408 14.336 31.744 31.744 31.744s31.744-14.336 31.744-31.744V384H670.72c18.944 0 33.28-14.336 33.28-31.744z m0 479.744V640H896l-192 192z"  horiz-adv-x="1024" />

    
    <glyph glyph-name="new" unicode="&#58994;" d="M880.128 609.7919999999999h-224.256V834.048l224.256-224.256z m-299.008-75.264h299.008v-449.024c0-72.704-72.704-149.504-149.504-149.504H282.112c-89.088 4.608-149.504 71.68-149.504 149.504v599.04c0 68.096 85.504 149.504 149.504 149.504h299.008v-299.52z m74.752-373.76c45.568 0 48.64 72.704 0 74.752H356.864c-58.368-2.56-54.784-81.92 0-74.752h299.008z m0 299.008H356.864c-45.568-4.608-48.128-77.312 0-74.752h299.008c52.736 0 49.152 77.312 0 74.752z"  horiz-adv-x="1024" />

    
    <glyph glyph-name="undo" unicode="&#58995;" d="M451.072-7.168000000000006L65.536 413.184l386.048 419.328v-237.568c223.744 0 507.392-114.688 507.392-658.432-91.648 329.216-480.256 295.936-507.392 295.936v-239.616z"  horiz-adv-x="1024" />

    
    <glyph glyph-name="redo" unicode="&#58996;" d="M572.928 231.93600000000004c-27.648 0-415.744 33.28-507.392-295.936 0 543.744 283.648 658.432 507.392 658.432V832l386.048-419.328-386.048-420.352v239.616z"  horiz-adv-x="1024" />

    
    <glyph glyph-name="cancel" unicode="&#58997;" d="M852.379888 148.67242299999998L619.912646 381.13966500000004l232.467242 238.187912c27.56323 27.56323 27.56323 66.567801 0 94.131031s-66.567801 27.56323-94.131031 0l-232.467242-232.467242-232.467242 232.467242c-27.56323 27.56323-71.76841 27.56323-99.851702 0-21.84256-27.56323-21.84256-72.288471 0.520061-94.131031L426.449975 386.860335l-232.467243-232.467242c-27.56323-27.56323-27.56323-66.567801 0-94.131031s66.567801-27.56323 94.131031 0l238.187913 226.746572 232.467242-232.467242c27.56323-27.56323 66.567801-27.56323 94.131031 0s27.043169 71.76841-0.520061 94.131031z"  horiz-adv-x="1040" />

    
    <glyph glyph-name="redo1" unicode="&#58998;" d="M572.928 231.93600000000004c-27.648 0-415.744 33.28-507.392-295.936 0 543.744 283.648 658.432 507.392 658.432V832l386.048-419.328-386.048-420.352v239.616z"  horiz-adv-x="1024" />

    
    <glyph glyph-name="date" unicode="&#58999;" d="M259.584 851.456c-20.48 0-37.376-16.896-37.376-40.96V711.6800000000001c0-20.48 16.896-37.376 37.376-37.376S296.96 691.2 296.96 711.6800000000001V810.496c0 24.064-16.896 40.96-37.376 40.96z m504.832 0c-20.48 0-37.376-16.896-37.376-37.376v-98.816c0-20.48 16.896-37.376 37.376-37.376s37.376 16.896 37.376 37.376V810.496c0.512 24.064-16.896 40.96-37.376 40.96zM880.64 752.64h-57.856v-57.856c0-27.136-20.48-47.616-47.616-47.616h-20.48c-27.136 0-47.616 20.48-47.616 47.616V752.64H317.44v-57.856c0-27.136-20.48-47.616-47.616-47.616h-20.48c-27.136 0-47.616 20.48-47.616 47.616V752.64H143.36C88.576 752.64 44.544 708.096 44.544 656.896V15.360000000000014c0-54.784 44.544-95.744 95.744-95.744h737.28c54.784 0 95.744 44.544 95.744 95.744V656.896c6.144 51.2-37.888 95.744-92.672 95.744z m20.48-679.424c0-44.544-34.304-78.336-78.336-78.336H201.216c-44.544 0-78.336 34.304-78.336 78.336v348.16c0 44.544 34.304 78.336 78.336 78.336h621.056c44.544 0 78.336-34.304 78.336-78.336v-348.16h0.512zM239.104 384h174.08v-95.744h-174.08V384z m215.04 0h174.08v-95.744h-174.08V384z m215.04 0h112.64v-95.744h-112.64V384z m-430.08-174.08h174.08v-95.744h-174.08V209.91999999999996z m215.04 0h174.08v-95.744h-174.08V209.91999999999996z m215.04 0h112.64v-95.744h-112.64V209.91999999999996z"  horiz-adv-x="1024" />

    
    <glyph glyph-name="tip" unicode="&#59000;" d="M703.488 195.072H320.512C303.104 286.72 158.72 377.856 158.72 528.384 158.72 697.856 334.336 850.432 511.488 850.432s352.768-152.576 352.768-322.048c0.512-150.528-143.872-242.176-160.768-333.312zM637.952 724.48L374.784 512l105.984-38.912-94.72-202.24 263.168 212.48-105.984 38.912 94.72 202.24zM348.16 169.47199999999998h327.68c7.168 0 12.8-5.632 12.8-12.8v-25.088c0-7.168-5.632-12.8-12.8-12.8H348.16c-7.168 0-12.8 5.632-12.8 12.8v25.088c0 7.168 5.632 12.8 12.8 12.8z m25.088-75.264h277.504c7.168 0 12.8-5.632 12.8-12.8v-25.088c0-7.168-5.632-12.8-12.8-12.8H373.248c-7.168 0-12.8 5.632-12.8 12.8v25.088c0.512 7.168 6.144 12.8 12.8 12.8z m62.976-75.776h151.04c13.824 0 25.088-11.264 25.088-25.088v-12.8c0-34.816-28.16-62.976-62.976-62.976H474.112c-34.816 0-62.976 28.16-62.976 62.976v12.8c0 13.824 11.264 25.088 25.088 25.088z"  horiz-adv-x="1024" />

    
    <glyph glyph-name="undo1" unicode="&#59001;" d="M451.072-7.168000000000006L65.536 413.184l386.048 419.328v-237.568c223.744 0 507.392-114.688 507.392-658.432-91.648 329.216-480.256 295.936-507.392 295.936v-239.616z"  horiz-adv-x="1024" />

    
    <glyph glyph-name="zoomin" unicode="&#59002;" d="M621.568 438.784v-36.352c0-5.12-2.048-9.216-5.632-12.8s-7.68-5.632-12.8-5.632h-128v-128c0-5.12-2.048-9.216-5.632-12.8s-7.68-5.632-12.8-5.632h-36.352c-5.12 0-9.216 2.048-12.8 5.632-3.584 3.584-5.632 7.68-5.632 12.8v128h-128c-5.12 0-9.216 2.048-12.8 5.632s-5.632 7.68-5.632 12.8v36.352c0 5.12 2.048 9.216 5.632 12.8 3.584 3.584 7.68 5.632 12.8 5.632h128v128c0 5.12 2.048 9.216 5.632 12.8s7.68 5.632 12.8 5.632h36.352c5.12 0 9.216-2.048 12.8-5.632 3.584-3.584 5.632-7.68 5.632-12.8v-128h128c5.12 0 9.216-2.048 12.8-5.632 4.096-3.584 5.632-7.68 5.632-12.8z m73.216-18.432c0 70.656-25.088 130.56-75.264 180.736S509.44 676.352 438.784 676.352s-130.56-25.088-180.736-75.264-75.264-110.08-75.264-180.736 25.088-130.56 75.264-180.736 110.592-75.264 180.736-75.264c70.656 0 130.56 25.088 180.736 75.264s75.264 110.592 75.264 180.736z m292.352-475.136c0-19.968-7.168-37.376-21.504-51.712s-31.744-21.504-51.712-21.504c-20.48 0-37.888 7.168-51.2 21.504l-196.096 195.584c-68.096-47.104-144.384-70.656-227.84-70.656-54.272 0-106.496 10.752-156.16 31.744s-92.672 49.664-128.512 85.504-64.512 78.848-85.504 128.512-31.744 101.888-31.744 156.16 10.752 106.496 31.744 156.16S117.76 669.184 154.112 705.5360000000001s78.848 64.512 128.512 85.504 101.888 31.744 156.16 31.744 106.496-10.752 156.16-31.744 92.672-49.664 128.512-85.504 64.512-78.848 85.504-128.512c20.992-49.664 31.744-101.888 31.744-156.16 0-83.968-23.552-159.744-70.656-227.84l196.096-196.096c14.336-14.336 20.992-31.744 20.992-51.712z"  horiz-adv-x="1024" />

    
    <glyph glyph-name="zoomout" unicode="&#59003;" d="M621.568 438.784v-36.352c0-5.12-2.048-9.216-5.632-12.8-3.584-3.584-7.68-5.632-12.8-5.632H274.432c-5.12 0-9.216 2.048-12.8 5.632-3.584 3.584-5.632 7.68-5.632 12.8v36.352c0 5.12 2.048 9.216 5.632 12.8 3.584 3.584 7.68 5.632 12.8 5.632h329.216c5.12 0 9.216-2.048 12.8-5.632 3.584-3.584 5.12-7.68 5.12-12.8z m73.216-18.432c0 70.656-25.088 130.56-75.264 180.736S509.44 676.352 438.784 676.352c-70.656 0-130.56-25.088-180.736-75.264S182.784 491.008 182.784 420.352s25.088-130.56 75.264-180.736 110.592-75.264 180.736-75.264c70.656 0 130.56 25.088 180.736 75.264s75.264 110.592 75.264 180.736z m292.352-475.136c0-19.968-7.168-37.376-21.504-51.712-14.336-14.336-31.744-21.504-51.712-21.504-20.48 0-37.888 7.168-51.2 21.504l-196.096 195.584c-68.096-47.104-144.384-70.656-227.84-70.656-54.272 0-106.496 10.752-156.16 31.744s-92.672 49.664-128.512 85.504-64.512 78.848-85.504 128.512-31.744 101.888-31.744 156.16c0 54.272 10.752 106.496 31.744 156.16S117.76 669.184 154.112 705.5360000000001s78.848 64.512 128.512 85.504 101.888 31.744 156.16 31.744c54.272 0 106.496-10.752 156.16-31.744s92.672-49.664 128.512-85.504 64.512-78.848 85.504-128.512c20.992-49.664 31.744-101.888 31.744-156.16 0-83.968-23.552-159.744-70.656-227.84l196.096-196.096c14.336-14.336 20.992-31.744 20.992-51.712z"  horiz-adv-x="1024" />

    
    <glyph glyph-name="downgrade" unicode="&#59004;" d="M832.512 386.048h-128V513.5360000000001c0 35.328-28.672 64-64 64h-256c-35.328 0-64-28.672-64-64v-127.488h-128c-57.344 0-86.016-68.608-45.568-109.056l320-320c12.8-12.8 29.184-18.944 45.568-18.944s32.768 6.656 45.056 18.944l320 320c39.936 40.448 11.776 109.056-45.056 109.056z m-129.024 287.744c0 17.408-14.336 31.744-31.744 31.744H351.232c-17.408 0-31.744-14.336-31.744-31.744s14.336-31.744 31.744-31.744h320c17.92 0 32.256 14.336 32.256 31.744z m-32.256 94.72c17.92 0 32.256 14.336 32.256 31.744s-14.336 31.744-31.744 31.744H351.232c-17.408 0-31.744-14.336-31.744-31.744s14.336-31.744 31.744-31.744h320z"  horiz-adv-x="1024" />

    
    <glyph glyph-name="user" unicode="&#59005;" d="M512 297.472c154.624 0 280.064 125.44 280.064 280.064 0 154.624-125.44 280.064-280.064 280.064S231.936 732.672 231.936 578.048s125.44-280.576 280.064-280.576zM955.904 5.1200000000000045c-22.016 128-85.504 221.696-174.08 294.4-22.016 17.408-53.76 15.872-74.24-4.608-50.688-50.688-120.32-82.432-197.632-82.432s-147.456 31.744-197.632 82.432c-20.48 20.48-52.224 23.552-74.24 4.608-85.504-72.704-148.48-166.4-169.472-294.4-7.68-52.224 28.672-95.232 82.432-95.232h723.456c51.2 0 89.6 43.008 81.408 95.232z"  horiz-adv-x="1024" />

    
    <glyph glyph-name="upgrade" unicode="&#59006;" d="M877.568 493.056l-320 320c-12.288 12.288-28.672 18.944-45.056 18.944-16.384 0-32.768-6.144-45.568-18.944L146.944 493.056c-40.448-40.448-11.776-109.056 45.568-109.056h128v-127.488c0-35.328 28.672-64 64-64h256c35.328 0 64 28.672 64 64V384h128c56.832 0 84.992 68.608 45.056 109.056zM671.232 128H351.232c-17.408 0-31.744-14.336-31.744-31.744 0-17.408 14.336-31.744 31.744-31.744h320.512c17.408 0 31.744 14.336 31.744 31.744 0 17.408-14.336 31.744-32.256 31.744z m0-126.464H351.232c-17.408 0-31.744-14.336-31.744-31.744 0-17.408 14.336-31.744 31.744-31.744h320.512c17.408 0 31.744 14.336 31.744 31.744 0 17.408-14.336 31.744-32.256 31.744z"  horiz-adv-x="1024" />

    
    <glyph glyph-name="upload" unicode="&#59007;" d="M768 54.78399999999999c0 9.728-3.584 18.432-10.752 25.6-7.168 7.168-15.872 10.752-25.6 10.752s-18.432-3.584-25.6-10.752c-7.168-7.168-10.752-15.872-10.752-25.6s3.584-18.432 10.752-25.6 15.872-10.752 25.6-10.752 18.432 3.584 25.6 10.752c7.168 7.168 10.752 15.872 10.752 25.6z m146.432 0c0 9.728-3.584 18.432-10.752 25.6-7.168 7.168-15.872 10.752-25.6 10.752s-18.432-3.584-25.6-10.752c-7.168-7.168-10.752-15.872-10.752-25.6s3.584-18.432 10.752-25.6c7.168-7.168 15.872-10.752 25.6-10.752s18.432 3.584 25.6 10.752c7.168 7.168 10.752 15.872 10.752 25.6z m73.216 128V0c0-15.36-5.12-28.16-15.872-38.912-10.752-10.752-23.552-15.872-38.912-15.872H91.648c-15.36 0-28.16 5.12-38.912 15.872-10.752 10.752-15.872 23.552-15.872 38.912v182.784c0 15.36 5.12 28.16 15.872 38.912 10.752 10.752 23.552 15.872 38.912 15.872h244.224c8.192-21.504 21.504-38.912 40.448-52.736 18.944-13.824 39.936-20.48 62.976-20.48h146.432c23.04 0 44.544 6.656 62.976 20.48 18.944 13.824 32.256 31.232 40.448 52.736h244.224c15.36 0 28.16-5.12 38.912-15.872 9.728-10.752 15.36-23.552 15.36-38.912zM801.792 552.96c-6.656-15.36-17.92-23.04-33.792-23.04h-146.432v-256c0-9.728-3.584-18.432-10.752-25.6-7.168-7.168-15.872-10.752-25.6-10.752H438.784c-9.728 0-18.432 3.584-25.6 10.752-7.168 7.168-10.752 15.872-10.752 25.6v256H256c-15.872 0-27.136 7.68-33.792 23.04-6.656 14.848-3.584 28.16 8.192 39.424l256 256c6.656 7.168 15.36 10.752 25.6 10.752s18.944-3.584 25.6-10.752l256-256c11.776-11.264 14.848-24.576 8.192-39.424z"  horiz-adv-x="1024" />

    
    <glyph glyph-name="download" unicode="&#59008;" d="M768 128c0 9.728-3.584 18.432-10.752 25.6-7.168 7.168-15.872 10.752-25.6 10.752s-18.432-3.584-25.6-10.752c-7.168-7.168-10.752-15.872-10.752-25.6s3.584-18.432 10.752-25.6c7.168-7.168 15.872-10.752 25.6-10.752s18.432 3.584 25.6 10.752c7.168 7.168 10.752 15.872 10.752 25.6z m146.432 0c0 9.728-3.584 18.432-10.752 25.6-7.168 7.168-15.872 10.752-25.6 10.752s-18.432-3.584-25.6-10.752c-7.168-7.168-10.752-15.872-10.752-25.6s3.584-18.432 10.752-25.6c7.168-7.168 15.872-10.752 25.6-10.752s18.432 3.584 25.6 10.752c7.168 7.168 10.752 15.872 10.752 25.6z m72.704 128v-182.784c0-15.36-5.12-28.16-15.872-38.912-10.752-10.752-23.552-15.872-38.912-15.872H91.648c-15.36 0-28.16 5.12-38.912 15.872-10.752 10.752-15.872 23.552-15.872 38.912V256c0 15.36 5.12 28.16 15.872 38.912s23.552 15.872 38.912 15.872h265.728l77.312-77.824c22.016-21.504 48.128-31.744 77.824-31.744 29.696 0 55.808 10.752 77.824 31.744l77.824 77.824h265.216c15.36 0 28.16-5.12 38.912-15.872 9.728-10.752 14.848-23.552 14.848-38.912z m-185.344 325.12c6.656-15.872 3.584-29.184-8.192-39.936l-256-256c-6.656-7.168-15.36-10.752-25.6-10.752s-18.944 3.584-25.6 10.752l-256 256c-11.776 11.264-14.336 24.576-8.192 39.936 6.656 14.848 17.92 22.528 33.792 22.528h146.432v256c0 9.728 3.584 18.432 10.752 25.6C420.352 892.416 429.056 896 438.784 896h146.432c9.728 0 18.432-3.584 25.6-10.752 7.168-7.168 10.752-15.872 10.752-25.6v-256H768c15.872-0.512 27.136-7.68 33.792-22.528z"  horiz-adv-x="1024" />

    
    <glyph glyph-name="filter" unicode="&#59009;" d="M975.492711 896H48.159381C5.682192 896-15.812289 844.310891 14.382339 814.116262L383.882706 444.104122v-411.977556c0-15.864974 7.6766-30.194628 20.470934-39.406548l159.673289-112.078367c31.729948-22.006255 75.742457 0.511773 75.742457 39.406549V444.104122L1009.269753 814.116262c30.194628 30.194628 9.211921 81.883738-33.777042 81.883738z"  horiz-adv-x="1024" />

    
    <glyph glyph-name="expand" unicode="&#59010;" d="M96.256 771.5840000000001v-266.752c0-17.408 18.944-22.528 32.768-8.704l86.528 84.992 157.696-155.648c8.704-8.704 24.064-8.704 32.768 0l64 64c8.704 8.704 8.704 22.528 0 32.768L314.368 678.4 399.36 764.928c13.824 15.36 8.704 32.768-8.704 32.768H123.904c-12.288 0-27.648-13.824-27.648-26.112z m831.488-784.384v268.288c0 17.408-15.36 22.528-29.184 8.704L813.568 179.20000000000005l-155.648 155.648c-8.704 8.704-22.528 8.704-32.768 0L560.64 271.36c-8.704-8.704-8.704-22.528 0-32.768l157.696-157.696-84.992-84.992c-13.824-13.824-8.704-29.184 8.704-29.184h266.752c10.24-0.512 18.944 9.728 18.944 20.48z m-805.376-20.992H389.12c17.408 0 22.528 18.944 8.704 32.768l-84.992 86.528 155.648 157.696c8.704 8.704 8.704 24.064 0 32.768L404.48 340.48c-8.704 8.704-22.528 8.704-32.768 0L215.552 184.32000000000005l-86.528 84.992c-15.36 13.824-32.768 8.704-32.768-8.704v-266.752c0-11.776 13.824-27.648 26.112-27.648zM906.752 797.696h-268.288c-17.408 0-22.528-15.36-8.704-29.184l84.992-84.992L558.592 527.36c-8.704-8.704-8.704-22.528 0-32.768l64-64c8.704-8.704 22.528-8.704 32.768 0l157.696 157.696 84.992-84.992c13.824-13.824 29.184-8.704 29.184 8.704V778.752c0.512 10.24-9.728 18.944-20.48 18.944z"  horiz-adv-x="1024" />

    
    <glyph glyph-name="collapse" unicode="&#59011;" d="M792.064 580.096l167.936 167.936-83.968 83.968-167.936-167.936L567.808 803.84v-364.032H931.84l-139.776 140.288z m139.776-251.904h-364.032V-35.84000000000003l139.776 139.776 167.936-167.936 83.968 83.968-167.936 167.936 140.288 140.288zM231.936 187.904l-167.936-167.936 83.968-83.968 167.936 167.936L456.192-35.84000000000003v364.032H92.16l139.776-140.288zM147.968 832L64 748.032l167.936-167.936L92.16 439.808h364.032V803.84L315.904 664.064 147.968 832z"  horiz-adv-x="1024" />

    
    <glyph glyph-name="sort" unicode="&#59012;" d="M403.02008-8.73895600000003H307.405622c-16.963855 3.598394-33.927711 3.598394-47.807228 10.281125-37.526104 16.963855-68.369478 44.208835-88.931727 78.650602-13.879518 30.843373-20.562249 64.771084-20.562249 99.212851V497.092369c0 13.879518 0 13.879518-13.879518 13.879519H16.963855c-3.598394 0-10.281124 0-13.879518 3.598393-3.084337 6.168675 3.598394 9.253012 7.196787 12.851406 20.562249 23.646586 37.526104 47.807229 58.088354 71.453815 41.124498 58.088353 85.333333 112.578313 129.542169 170.666667 3.598394 3.598394 6.682731 6.682731 13.879518 3.598393 6.682731-3.598394 10.281124-10.281124 16.963855-16.963855 47.807229-61.686747 95.614458-126.457831 147.02008-191.228916 10.281124-13.879518 20.562249-23.646586 27.24498-37.526104l3.598394-3.598394c3.598394-6.682731 3.598394-13.879518-6.682731-13.879518H270.393574c-10.281124 0-10.281124 0-10.281124-10.281124v-331.052209c0-37.526104 33.927711-71.453815 71.453815-71.453815h54.48996c37.526104 0 71.453815 33.927711 71.453815 71.453815v211.791164 201.510041c0 41.124498 10.281124 81.73494 33.927711 116.176706 23.646586 33.927711 54.48996 58.088353 95.614458 68.369478 10.281124 3.598394 20.562249 3.598394 30.843373 3.598394h95.614458c13.879518-3.598394 23.646586 0 37.526105-6.682731 68.369478-23.646586 105.895582-71.453815 122.859437-139.823293 3.598394-10.281124 3.598394-23.646586 3.598394-33.927711V262.168675c0-13.879518 0-13.879518 13.879518-13.879518h122.859438c3.598394 0 10.281124 0 13.879518-3.598394v-3.598394c-6.682731-16.963855-20.562249-27.24498-30.843374-41.124498-44.208835-58.088353-92.016064-112.578313-136.738956-170.666666-10.281124-13.879518-20.562249-27.24498-30.843373-37.526105s-10.281124-10.281124-20.562249 0l-3.598394 3.598394c-41.124498 54.48996-81.73494 109.493976-122.859437 160.385542-20.562249 27.24498-41.124498 51.405622-61.686747 78.650603-3.598394 10.281124-6.682731 13.879518-6.682731 16.963855 3.598394 3.598394 6.682731 3.598394 10.281124 3.598394h133.140563c3.598394 0 6.682731 3.598394 6.68273 6.68273v6.682731V592.706827c0 41.124498-30.843373 75.052209-75.052208 75.052209h-47.807229c-41.124498 0-75.052209-33.927711-75.052209-75.052209v-416.385542c0-44.208835-13.879518-85.333333-41.124498-119.261044-23.646586-30.843373-54.48996-51.405622-92.016064-61.686747-6.682731-4.11245-20.048193-0.514056-30.329318-4.11245zM628.176707 776.738956c-3.598394-3.598394-3.598394-3.598394 0 0-3.598394 0-3.598394 0 0 0zM317.686747-8.73895600000003c0 3.598394 0 3.598394 0 0zM395.823293-8.73895600000003c3.598394 3.598394 3.598394 3.598394 0 0 3.598394 0 3.598394 0 0 0z"  horiz-adv-x="1028" />

    
    <glyph glyph-name="find" unicode="&#59013;" d="M960 448h-384V384h-128V448h-384V640h384V704h128V640h384v-192zM128-64h306.688L378.88 384H189.44l-61.44-448z m448 0h306.688L826.88 384h-189.44l-61.44-448zM384 832H256v-128h128v128z m384 0h-128v-128h128v128z"  horiz-adv-x="1024" />

    
    <glyph glyph-name="node" unicode="&#59014;" d="M61.952 496.64c0-61.952 50.176-112.64 112.64-112.64s112.64 50.176 112.64 112.64-50.176 112.64-112.64 112.64-112.64-50.688-112.64-112.64z m630.272-450.048c0-61.952 50.176-112.64 112.64-112.64s112.64 50.176 112.64 112.64-50.176 112.64-112.64 112.64-112.64-50.688-112.64-112.64z m44.544 674.816c0-61.952 50.176-112.64 112.64-112.64 61.952 0 112.64 50.176 112.64 112.64s-50.176 112.64-112.64 112.64c-61.952 0-112.64-50.176-112.64-112.64zM331.776 384c0-124.416 100.864-224.768 224.768-224.768s224.768 100.864 224.768 224.768c0 124.416-100.864 224.768-224.768 224.768S331.776 508.416 331.776 384zM615.424 252.928l185.344-238.08 35.328 27.648-185.344 238.08-35.328-27.648zM213.504 459.776l177.664-59.392 14.336 42.496-177.664 59.392-14.336-42.496z m608.768 270.848L660.48 514.56l35.84-27.136 161.792 216.064-35.84 27.136z"  horiz-adv-x="1024" />

    
    <glyph glyph-name="wait" unicode="&#59015;" d="M535.552 864.256h-47.104c-31.744 0-49.152-23.552-49.152-47.104V665.6c0-23.552 23.552-49.152 49.152-49.152h47.104c23.552 0 49.152 23.552 49.152 49.152V817.152c0 23.552-17.408 47.104-49.152 47.104z m0-712.704h-47.104c-23.552 0-49.152-23.552-49.152-49.152v-151.552c0-23.552 23.552-47.104 49.152-47.104h47.104c23.552 0 49.152 23.552 49.152 47.104V102.39999999999998c0 34.304-17.408 49.152-49.152 49.152z m409.6 305.152H793.6c-23.552 0-49.152-23.552-49.152-49.152v-47.104c0-23.552 23.552-49.152 49.152-49.152h151.552c23.552 0 47.104 23.552 47.104 49.152v47.104c0 31.744-23.552 49.152-47.104 49.152zM287.744 360.448v47.104c0 23.552-23.552 49.152-47.104 49.152H78.336c-23.552 0-47.104-16.896-47.104-49.152v-47.104c0-23.552 23.552-49.152 47.104-49.152H230.4c34.304 0 57.344 17.408 57.344 49.152z m-8.192 360.448c-31.744 32.256-80.896 32.256-104.448 0-31.744-31.744-31.744-80.896 0-104.448l72.704-72.704c23.552-31.744 72.704-31.744 104.448 0s31.744 80.896 0 104.448L279.552 720.896z m497.152-496.64c-31.744 31.744-80.896 31.744-104.448 0-31.744-31.744-31.744-80.896 0-104.448l72.704-72.704c31.744-31.744 80.896-31.744 104.448 0 31.744 31.744 31.744 80.896 0 104.448l-72.704 72.704z m0 319.488l72.704 72.704c31.744 31.744 31.744 80.896 0 104.448-31.744 31.744-80.896 31.744-104.448 0l-72.704-72.704c-31.744-31.744-31.744-78.848 0-104.448 31.744-31.744 80.896-31.744 104.448 0zM247.296 224.25599999999997l-72.704-72.704c-31.744-31.744-31.744-80.896 0-104.448 31.744-31.744 80.896-31.744 104.448 0l72.704 72.704c31.744 31.744 31.744 80.896 0 104.448-31.744 31.744-80.896 31.744-104.448 0z"  horiz-adv-x="1024" />

    
    <glyph glyph-name="split" unicode="&#59016;" d="M224.256 588.8L0 384l217.6-204.8v147.456h147.456V448H224.256V588.8z m588.8 0l210.944-204.8-210.944-204.8v147.456h-153.6V448h153.6V588.8z m-332.8 96.256h31.744-31.744z m31.744 0H441.344V76.79999999999995h140.8V685.056H512z"  horiz-adv-x="1024" />

    
    <glyph glyph-name="lock" unicode="&#59017;" d="M840.192 470.016H768v168.96C767.488 780.8 653.312 896 512 896 371.2 896 256 780.8 256 638.976v-168.96H183.808c-34.816 0-62.976-28.16-62.976-63.488v-463.36c0-35.328 28.16-63.488 62.976-63.488h656.384c34.816 0 62.976 28.16 62.976 63.488V406.528c0 34.816-28.16 63.488-62.976 63.488z m-292.864-307.2V61.440000000000055c0-4.608-3.584-8.192-8.192-8.192H484.864c-4.608 0-8.192 3.584-8.192 8.192v101.376c-25.6 13.312-43.008 39.424-43.008 70.144 0 43.52 35.328 78.848 78.336 78.848 43.52 0 78.848-35.328 78.848-78.848 0-30.72-17.92-56.832-43.52-70.144z m122.368 307.2H354.304V634.88c0 87.04 70.656 158.208 157.696 158.208S669.696 721.92 669.696 634.88v-164.864z"  horiz-adv-x="1024" />

    
    <glyph glyph-name="unlock" unicode="&#59018;" d="M840.192 470.016H354.304V634.88c0 87.04 70.656 158.208 157.696 158.208S669.696 721.92 669.696 634.88v-17.92H768v22.016C767.488 780.8 653.312 896 512 896 371.2 896 256 780.8 256 638.976v-168.96H183.808c-34.816 0-62.976-28.16-62.976-63.488v-463.36c0-35.328 28.16-63.488 62.976-63.488h656.384c34.816 0 62.976 28.16 62.976 63.488V406.528c0 34.816-28.16 63.488-62.976 63.488z m-292.864-307.2V61.440000000000055c0-4.608-3.584-8.192-8.192-8.192H484.864c-4.608 0-8.192 3.584-8.192 8.192v101.376c-25.6 13.312-43.008 39.424-43.008 70.144 0 43.52 35.328 78.848 78.336 78.848 43.52 0 78.848-35.328 78.848-78.848 0-30.72-17.92-56.832-43.52-70.144z"  horiz-adv-x="1024" />

    
    <glyph glyph-name="goto" unicode="&#59019;" d="M512 896C228.864 896 0 667.136 0 384s228.864-512 512-512 512 228.864 512 512S795.136 896 512 896z m277.504-542.72l-210.432-212.992c-16.384-16.384-43.008-16.384-59.392 0s-16.384 43.008 0 60.416l138.752 140.288H252.928c-23.04 0-41.984 18.944-41.984 43.008 0 23.04 18.944 43.008 41.984 43.008h403.968l-138.752 140.288c-8.192 8.192-12.288 18.944-12.288 29.696 0 10.752 4.096 21.504 12.288 29.696 16.384 17.408 43.008 17.408 60.416 0l210.432-212.992c16.384-15.872 16.384-43.008 0.512-60.416z"  horiz-adv-x="1024" />

    
    <glyph glyph-name="po-plant" unicode="&#59020;" d="M789.942857 25.600000000000023V760.685714c0 29.257143-21.942857 51.2-47.542857 51.2H91.428571c-25.6 0-47.542857-21.942857-47.542857-51.2v-735.085714H0V-128h837.485714v153.6h-47.542857z m-256 285.257143l-182.857143-266.971429 47.542857 215.771429H303.542857l73.142857 164.571428h109.714286l-54.857143-109.714285 102.4-3.657143zM91.428571 720.457143h650.971429v-76.8H91.428571V720.457143z m0-117.028572h519.314286v-76.8H91.428571V603.4285709999999zM976.457143 25.600000000000023V760.685714c0 29.257143-21.942857 51.2-47.542857 51.2h-142.628572c25.6 0 47.542857-21.942857 47.542857-51.2v-680.228571h47.542858V-128H1024v153.6h-47.542857z"  horiz-adv-x="1024" />

    
    <glyph glyph-name="eliminate" unicode="&#59021;" d="M1005.714286 497.371429l-277.942857 281.6c-21.942857 21.942857-58.514286 21.942857-80.457143 0L21.942857 157.25714300000004c-21.942857-21.942857-21.942857-58.514286 0-80.457143l84.114286-84.114286c3.657143-3.657143 14.628571-10.971429 25.6-10.971428H548.571429c10.971429 0 18.285714 3.657143 29.257142 10.971428L1002.057143 420.571429c21.942857 21.942857 21.942857 54.857143 3.657143 76.8z m-373.028572-310.857143l-102.4-102.4c-3.657143-3.657143-7.314286-3.657143-10.971428-3.657143H164.571429c-3.657143 0-10.971429 3.657143-10.971429 3.657143l-21.942857 21.942857c-7.314286 7.314286-7.314286 14.628571 0 21.942857l277.942857 277.942857c7.314286 7.314286 14.628571 7.314286 21.942857 0l201.142857-201.142857c7.314286-3.657143 7.314286-14.628571 0-18.285714z"  horiz-adv-x="1024" />

    
    <glyph glyph-name="ed-file" unicode="&#59022;" d="M658.285714 705.828571c-7.314286 0-14.628571 3.657143-18.285714 7.314286-3.657143 3.657143-10.971429 10.971429-10.971429 18.285714-7.314286 7.314286-7.314286 14.628571-10.971428 21.942858 0 7.314286-3.657143 14.628571-3.657143 18.285714V896h3.657143c7.314286 0 10.971429 0 18.285714-3.657143 3.657143 0 10.971429-3.657143 18.285714-10.971428 7.314286-3.657143 18.285714-10.971429 29.257143-21.942858 10.971429-10.971429 25.6-21.942857 40.228572-36.571428 18.285714-14.628571 32.914286-25.6 43.885714-36.571429s18.285714-21.942857 25.6-29.257143c7.314286-7.314286 10.971429-14.628571 10.971429-21.942857v-29.257143h-146.285715z m314.514286-482.742857c3.657143-3.657143 3.657143-10.971429 3.657143-21.942857 0-7.314286-3.657143-14.628571-10.971429-21.942857-3.657143-3.657143-7.314286-7.314286-7.314285-10.971429-3.657143 0-7.314286-3.657143-7.314286-7.314285l-7.314286-7.314286-84.114286 87.771429c3.657143 3.657143 7.314286 7.314286 14.628572 10.971428 3.657143 3.657143 10.971429 7.314286 10.971428 10.971429 7.314286 7.314286 18.285714 10.971429 25.6 10.971428 10.971429 0 18.285714-3.657143 21.942858-7.314285 7.314286-3.657143 14.628571-10.971429 21.942857-18.285715 7.314286-7.314286 14.628571-14.628571 18.285714-25.6zM614.4 128c14.628571 0 25.6 3.657143 36.571429 10.971429l-197.485715-208.457143H179.2c-10.971429 0-25.6 3.657143-40.228571 10.971428-14.628571 7.314286-29.257143 18.285714-43.885715 29.257143s-25.6 29.257143-32.914285 47.542857c-7.314286 14.628571-14.628571 32.914286-14.628572 51.2v694.857143c0 14.628571 3.657143 29.257143 10.971429 43.885714 3.657143 18.285714 14.628571 29.257143 25.6 43.885715s21.942857 21.942857 36.571428 32.914285 29.257143 10.971429 43.885715 10.971429h387.657142v-128c0-14.628571 3.657143-25.6 7.314286-40.228571s10.971429-29.257143 18.285714-40.228572c7.314286-10.971429 18.285714-21.942857 32.914286-32.914286 14.628571-10.971429 29.257143-14.628571 47.542857-14.628571h146.285715v-340.114286l-138.971429-146.285714c7.314286 10.971429 10.971429 21.942857 10.971429 36.571429 0 18.285714-7.314286 32.914286-18.285715 43.885714-10.971429 10.971429-29.257143 18.285714-43.885714 18.285714H237.714286c-18.285714 0-32.914286-7.314286-43.885715-18.285714-10.971429-10.971429-18.285714-29.257143-18.285714-43.885714 0-18.285714 7.314286-32.914286 18.285714-43.885715 10.971429-10.971429 25.6-18.285714 43.885715-18.285714h376.685714zM237.714286 512c-18.285714 0-32.914286-7.314286-43.885715-18.285714-10.971429-10.971429-18.285714-29.257143-18.285714-43.885715 0-18.285714 7.314286-32.914286 18.285714-43.885714s25.6-21.942857 43.885715-21.942857h380.342857c18.285714 0 32.914286 7.314286 43.885714 18.285714s18.285714 25.6 18.285714 43.885715-7.314286 32.914286-18.285714 43.885714c-10.971429 10.971429-29.257143 18.285714-43.885714 18.285714H237.714286z m380.342857-512l14.628571 14.628571 25.6 25.6 32.914286 32.914286 36.571429 36.571429 98.742857 98.742857 84.114285-87.771429-98.742857-98.742857-36.571428-36.571428-32.914286-32.914286c-10.971429-10.971429-18.285714-18.285714-21.942857-25.6l-10.971429-10.971429c-3.657143-3.657143-7.314286-7.314286-10.971428-7.314285-3.657143-3.657143-7.314286-7.314286-10.971429-7.314286-3.657143-3.657143-10.971429-3.657143-18.285714-7.314286s-18.285714-7.314286-25.6-7.314286c-7.314286-3.657143-18.285714-3.657143-25.6-7.314285s-18.285714-7.314286-21.942857-7.314286c-7.314286 0-14.628571 0-14.628572 3.657143-3.657143 3.657143-3.657143 10.971429-3.657143 18.285714 0 3.657143 3.657143 10.971429 3.657143 18.285714 3.657143 7.314286 3.657143 18.285714 7.314286 25.6 3.657143 7.314286 3.657143 18.285714 7.314286 25.6s3.657143 10.971429 7.314285 14.628572c3.657143 7.314286 7.314286 14.628571 14.628572 21.942857z"  horiz-adv-x="1024" />

    
    </font>
</defs>
</svg>
